<svg width="22" height="20" viewBox="0 0 22 20" fill="none" xmlns="http://www.w3.org/2000/svg">
<path id="Vector" d="M4.1358 12.4074H12.4074V11.5432H4.1358V12.4074ZM4.1358 8.7037H17.3457V7.83951H4.1358V8.7037ZM4.1358 5H17.3457V4.1358H4.1358V5ZM0 20V1.85185C0 1.31687 0.174897 0.874486 0.524691 0.524691C0.874485 0.174897 1.31687 0 1.85185 0H19.6296C20.1646 0 20.607 0.174897 20.9568 0.524691C21.3066 0.874486 21.4815 1.31687 21.4815 1.85185V14.6914C21.4815 15.2263 21.3066 15.6687 20.9568 16.0185C20.607 16.3683 20.1646 16.5432 19.6296 16.5432H3.45679L0 20ZM3.08642 15.679H19.6296C19.8765 15.679 20.1029 15.5761 20.3086 15.3704C20.5144 15.1646 20.6173 14.9383 20.6173 14.6914V1.85185C20.6173 1.60494 20.5144 1.3786 20.3086 1.17284C20.1029 0.967078 19.8765 0.864198 19.6296 0.864198H1.85185C1.60494 0.864198 1.3786 0.967078 1.17284 1.17284C0.967078 1.3786 0.864197 1.60494 0.864197 1.85185V17.9012L3.08642 15.679Z" fill="white"/>
</svg>
