<svg width="17" height="13" viewBox="0 0 17 13" fill="none" xmlns="http://www.w3.org/2000/svg">
<path id="Vector" d="M9.95871 6.66205H13.5989V5.7692H9.95871V6.66205ZM9.95871 4.18951H13.5989V3.29665H9.95871V4.18951ZM2.47254 9.20335H8.37902V9.05558C8.37902 8.53475 8.11749 8.13155 7.59442 7.84598C7.07135 7.56042 6.34851 7.41763 5.42589 7.41763C4.50327 7.41763 3.78036 7.56042 3.25714 7.84598C2.73408 8.13155 2.47254 8.53475 2.47254 9.05558V9.20335ZM5.42589 5.97522C5.80238 5.97522 6.11972 5.84621 6.3779 5.58817C6.63609 5.32999 6.76518 5.01257 6.76518 4.63594C6.76518 4.2593 6.63609 3.94196 6.3779 3.68393C6.11972 3.42574 5.80238 3.29665 5.42589 3.29665C5.04926 3.29665 4.73185 3.42574 4.47366 3.68393C4.21563 3.94196 4.08661 4.2593 4.08661 4.63594C4.08661 5.01257 4.21563 5.32999 4.47366 5.58817C4.73185 5.84621 5.04926 5.97522 5.42589 5.97522ZM1.44241 12.5C1.0314 12.5 0.688244 12.3624 0.412946 12.0871C0.137649 11.8118 0 11.4686 0 11.0576V1.44241C0 1.0314 0.137649 0.688244 0.412946 0.412946C0.688244 0.137649 1.0314 0 1.44241 0H14.629C15.04 0 15.3832 0.137649 15.6585 0.412946C15.9338 0.688244 16.0714 1.0314 16.0714 1.44241V11.0576C16.0714 11.4686 15.9338 11.8118 15.6585 12.0871C15.3832 12.3624 15.04 12.5 14.629 12.5H1.44241ZM1.44241 11.6071H14.629C14.7665 11.6071 14.8925 11.5499 15.0069 11.4355C15.1214 11.3211 15.1786 11.1951 15.1786 11.0576V1.44241C15.1786 1.30491 15.1214 1.17894 15.0069 1.06451C14.8925 0.950074 14.7665 0.892857 14.629 0.892857H1.44241C1.30491 0.892857 1.17894 0.950074 1.06451 1.06451C0.950074 1.17894 0.892857 1.30491 0.892857 1.44241V11.0576C0.892857 11.1951 0.950074 11.3211 1.06451 11.4355C1.17894 11.5499 1.30491 11.6071 1.44241 11.6071Z" fill="black"/>
</svg>
