<svg width="47" height="47" viewBox="0 0 47 47" fill="none" xmlns="http://www.w3.org/2000/svg">
<circle cx="23.5" cy="23.5" r="23.5" fill="#F8FBFF"/>
<path d="M14.4961 24H13.9261L12.2111 21.405V24H11.6411V20.52H12.2111L13.9261 23.11V20.52H14.4961V24ZM16.4396 24.045C16.1796 24.045 15.9446 23.9867 15.7346 23.87C15.5246 23.75 15.3596 23.5833 15.2396 23.37C15.1196 23.1533 15.0596 22.9033 15.0596 22.62C15.0596 22.34 15.1213 22.0917 15.2446 21.875C15.368 21.6583 15.5363 21.4917 15.7496 21.375C15.963 21.2583 16.2013 21.2 16.4646 21.2C16.728 21.2 16.9663 21.2583 17.1796 21.375C17.393 21.4917 17.5613 21.6583 17.6846 21.875C17.808 22.0917 17.8696 22.34 17.8696 22.62C17.8696 22.9 17.8063 23.1483 17.6796 23.365C17.553 23.5817 17.3796 23.75 17.1596 23.87C16.943 23.9867 16.703 24.045 16.4396 24.045ZM16.4396 23.55C16.5863 23.55 16.723 23.515 16.8496 23.445C16.9796 23.375 17.0846 23.27 17.1646 23.13C17.2446 22.99 17.2846 22.82 17.2846 22.62C17.2846 22.42 17.2463 22.2517 17.1696 22.115C17.093 21.975 16.9913 21.87 16.8646 21.8C16.738 21.73 16.6013 21.695 16.4546 21.695C16.308 21.695 16.1713 21.73 16.0446 21.8C15.9213 21.87 15.823 21.975 15.7496 22.115C15.6763 22.2517 15.6396 22.42 15.6396 22.62C15.6396 22.9167 15.7146 23.1467 15.8646 23.31C16.018 23.47 16.2096 23.55 16.4396 23.55ZM20.3019 20.525V24H19.7319V20.525H20.3019ZM24.3853 21.2C24.602 21.2 24.7953 21.245 24.9653 21.335C25.1386 21.425 25.2736 21.5583 25.3703 21.735C25.4703 21.9117 25.5203 22.125 25.5203 22.375V24H24.9553V22.46C24.9553 22.2133 24.8936 22.025 24.7703 21.895C24.647 21.7617 24.4786 21.695 24.2653 21.695C24.052 21.695 23.882 21.7617 23.7553 21.895C23.632 22.025 23.5703 22.2133 23.5703 22.46V24H23.0053V22.46C23.0053 22.2133 22.9436 22.025 22.8203 21.895C22.697 21.7617 22.5286 21.695 22.3153 21.695C22.102 21.695 21.932 21.7617 21.8053 21.895C21.682 22.025 21.6203 22.2133 21.6203 22.46V24H21.0503V21.245H21.6203V21.56C21.7136 21.4467 21.832 21.3583 21.9753 21.295C22.1186 21.2317 22.272 21.2 22.4353 21.2C22.6553 21.2 22.852 21.2467 23.0253 21.34C23.1986 21.4333 23.332 21.5683 23.4253 21.745C23.5086 21.5783 23.6386 21.4467 23.8153 21.35C23.992 21.25 24.182 21.2 24.3853 21.2ZM26.0556 22.61C26.0556 22.3333 26.1123 22.0883 26.2256 21.875C26.3423 21.6617 26.4989 21.4967 26.6956 21.38C26.8956 21.26 27.1156 21.2 27.3556 21.2C27.5723 21.2 27.7606 21.2433 27.9206 21.33C28.0839 21.4133 28.2139 21.5183 28.3106 21.645V21.245H28.8856V24H28.3106V23.59C28.2139 23.72 28.0823 23.8283 27.9156 23.915C27.7489 24.0017 27.5589 24.045 27.3456 24.045C27.1089 24.045 26.8923 23.985 26.6956 23.865C26.4989 23.7417 26.3423 23.5717 26.2256 23.355C26.1123 23.135 26.0556 22.8867 26.0556 22.61ZM28.3106 22.62C28.3106 22.43 28.2706 22.265 28.1906 22.125C28.1139 21.985 28.0123 21.8783 27.8856 21.805C27.7589 21.7317 27.6223 21.695 27.4756 21.695C27.3289 21.695 27.1923 21.7317 27.0656 21.805C26.9389 21.875 26.8356 21.98 26.7556 22.12C26.6789 22.2567 26.6406 22.42 26.6406 22.61C26.6406 22.8 26.6789 22.9667 26.7556 23.11C26.8356 23.2533 26.9389 23.3633 27.0656 23.44C27.1956 23.5133 27.3323 23.55 27.4756 23.55C27.6223 23.55 27.7589 23.5133 27.8856 23.44C28.0123 23.3667 28.1139 23.26 28.1906 23.12C28.2706 22.9767 28.3106 22.81 28.3106 22.62ZM30.7443 21.2C30.9576 21.2 31.1459 21.2433 31.3093 21.33C31.4759 21.4133 31.6059 21.5183 31.6993 21.645V21.245H32.2743V24.045C32.2743 24.2983 32.2209 24.5233 32.1143 24.72C32.0076 24.92 31.8526 25.0767 31.6493 25.19C31.4493 25.3033 31.2093 25.36 30.9293 25.36C30.5559 25.36 30.2459 25.2717 29.9993 25.095C29.7526 24.9217 29.6126 24.685 29.5793 24.385H30.1443C30.1876 24.5283 30.2793 24.6433 30.4193 24.73C30.5626 24.82 30.7326 24.865 30.9293 24.865C31.1593 24.865 31.3443 24.795 31.4843 24.655C31.6276 24.515 31.6993 24.3117 31.6993 24.045V23.585C31.6026 23.715 31.4709 23.825 31.3043 23.915C31.1409 24.0017 30.9543 24.045 30.7443 24.045C30.5043 24.045 30.2843 23.985 30.0843 23.865C29.8876 23.7417 29.7309 23.5717 29.6143 23.355C29.5009 23.135 29.4443 22.8867 29.4443 22.61C29.4443 22.3333 29.5009 22.0883 29.6143 21.875C29.7309 21.6617 29.8876 21.4967 30.0843 21.38C30.2843 21.26 30.5043 21.2 30.7443 21.2ZM31.6993 22.62C31.6993 22.43 31.6593 22.265 31.5793 22.125C31.5026 21.985 31.4009 21.8783 31.2743 21.805C31.1476 21.7317 31.0109 21.695 30.8643 21.695C30.7176 21.695 30.5809 21.7317 30.4543 21.805C30.3276 21.875 30.2243 21.98 30.1443 22.12C30.0676 22.2567 30.0293 22.42 30.0293 22.61C30.0293 22.8 30.0676 22.9667 30.1443 23.11C30.2243 23.2533 30.3276 23.3633 30.4543 23.44C30.5843 23.5133 30.7209 23.55 30.8643 23.55C31.0109 23.55 31.1476 23.5133 31.2743 23.44C31.4009 23.3667 31.5026 23.26 31.5793 23.12C31.6593 22.9767 31.6993 22.81 31.6993 22.62ZM35.5479 22.555C35.5479 22.6583 35.5413 22.7517 35.5279 22.835H33.4229C33.4396 23.055 33.5213 23.2317 33.6679 23.365C33.8146 23.4983 33.9946 23.565 34.2079 23.565C34.5146 23.565 34.7313 23.4367 34.8579 23.18H35.4729C35.3896 23.4333 35.2379 23.6417 35.0179 23.805C34.8013 23.965 34.5313 24.045 34.2079 24.045C33.9446 24.045 33.7079 23.9867 33.4979 23.87C33.2913 23.75 33.1279 23.5833 33.0079 23.37C32.8913 23.1533 32.8329 22.9033 32.8329 22.62C32.8329 22.3367 32.8896 22.0883 33.0029 21.875C33.1196 21.6583 33.2813 21.4917 33.4879 21.375C33.6979 21.2583 33.9379 21.2 34.2079 21.2C34.4679 21.2 34.6996 21.2567 34.9029 21.37C35.1063 21.4833 35.2646 21.6433 35.3779 21.85C35.4913 22.0533 35.5479 22.2883 35.5479 22.555ZM34.9529 22.375C34.9496 22.165 34.8746 21.9967 34.7279 21.87C34.5813 21.7433 34.3996 21.68 34.1829 21.68C33.9863 21.68 33.8179 21.7433 33.6779 21.87C33.5379 21.9933 33.4546 22.1617 33.4279 22.375H34.9529Z" fill="#B3CBF1"/>
</svg>
