<svg width="51" height="24" viewBox="0 0 51 24" fill="none" xmlns="http://www.w3.org/2000/svg">
<g id="Google_Pay_Logo 1" clip-path="url(#clip0_2039_137)">
<path id="Vector" d="M23.811 12.4092V18.2675H21.9213V3.7793H26.8347C28.0315 3.7793 29.1654 4.22024 30.0472 5.03914C30.9291 5.79505 31.3701 6.9289 31.3701 8.12575C31.3701 9.3226 30.9291 10.3935 30.0472 11.2124C29.1654 12.0313 28.0945 12.4722 26.8347 12.4722L23.811 12.4092ZM23.811 5.54308V10.5824H26.9606C27.6535 10.5824 28.3465 10.3305 28.7874 9.82654C29.7953 8.88166 29.7953 7.30686 28.8504 6.36197L28.7874 6.29898C28.2835 5.79505 27.6535 5.48008 26.9606 5.54308H23.811Z" fill="#5F6368"/>
<path id="Vector_2" d="M35.7166 8.06348C37.1024 8.06348 38.1733 8.44143 38.9922 9.19734C39.8111 9.95324 40.189 10.9611 40.189 12.221V18.2682H38.4252V16.8824H38.3622C37.6063 18.0162 36.5355 18.5832 35.2756 18.5832C34.2048 18.5832 33.2599 18.2682 32.504 17.6383C31.8111 17.0084 31.3701 16.1265 31.3701 15.1816C31.3701 14.1737 31.7481 13.3548 32.504 12.7249C33.2599 12.095 34.3307 11.843 35.5906 11.843C36.7244 11.843 37.6063 12.032 38.2993 12.4729V12.032C38.2993 11.4021 38.0473 10.7721 37.5433 10.3942C37.0394 9.95324 36.4095 9.70127 35.7166 9.70127C34.6457 9.70127 33.8268 10.1422 33.2599 11.0241L31.6221 10.0162C32.63 8.6934 33.9528 8.06348 35.7166 8.06348ZM33.3229 15.2446C33.3229 15.7485 33.5748 16.1895 33.9528 16.4414C34.3937 16.7564 34.8977 16.9454 35.4016 16.9454C36.1575 16.9454 36.9134 16.6304 37.4804 16.0635C38.1103 15.4965 38.4252 14.8036 38.4252 14.0477C37.8583 13.6068 37.0394 13.3548 35.9685 13.3548C35.2126 13.3548 34.5827 13.5438 34.0788 13.9217C33.5748 14.2367 33.3229 14.6776 33.3229 15.2446Z" fill="#5F6368"/>
<path id="Vector_3" d="M50.3937 8.37793L44.1574 22.6771H42.2677L44.5984 17.7008L40.5039 8.44092H42.5197L45.4803 15.559H45.5433L48.4409 8.44092H50.3937V8.37793Z" fill="#5F6368"/>
<path id="Vector_4" d="M16.3149 11.15C16.3149 10.5831 16.2519 10.0161 16.189 9.44922H8.31494V12.6618H12.7874C12.5984 13.6697 12.0315 14.6146 11.1496 15.1815V17.2602H13.8582C15.4331 15.8114 16.3149 13.6697 16.3149 11.15Z" fill="#4285F4"/>
<path id="Vector_5" d="M8.31491 19.2753C10.5826 19.2753 12.4724 18.5194 13.8582 17.2596L11.1496 15.1808C10.3936 15.6848 9.44876 15.9997 8.31491 15.9997C6.17317 15.9997 4.28341 14.5509 3.65349 12.5352H0.881836V14.6769C2.33065 17.5115 5.1653 19.2753 8.31491 19.2753Z" fill="#34A853"/>
<path id="Vector_6" d="M3.65354 12.535C3.27559 11.5271 3.27559 10.3933 3.65354 9.3224V7.18066H0.881891C-0.31496 9.51137 -0.31496 12.283 0.881891 14.6767L3.65354 12.535Z" fill="#FBBC04"/>
<path id="Vector_7" d="M8.3149 5.92156C9.51175 5.92156 10.6456 6.3625 11.5275 7.1814L13.9212 4.7877C12.4094 3.40187 10.3936 2.58298 8.3779 2.64597C5.22829 2.64597 2.33065 4.40975 0.944824 7.24439L3.71648 9.38613C4.28341 7.37038 6.17317 5.92156 8.3149 5.92156Z" fill="#EA4335"/>
</g>
<defs>
<clipPath id="clip0_2039_137">
<rect width="50.3937" height="24" fill="white"/>
</clipPath>
</defs>
</svg>
