<svg width="40" height="24" viewBox="0 0 40 24" fill="none" xmlns="http://www.w3.org/2000/svg">
<g id="Group 2332">
<path id="Vector" fill-rule="evenodd" clip-rule="evenodd" d="M19.9413 20.8893C22.0427 22.8255 24.8647 24 27.9342 24C34.5264 24 39.862 18.6232 39.862 12.0102C39.862 5.377 34.5264 0 27.9342 0C24.8647 0 22.0427 1.17423 19.9413 3.11074C17.531 5.31493 16.0065 8.4875 16.0065 12.0102C16.0067 15.5329 17.531 18.7057 19.9413 20.8893Z" fill="#E9B040"/>
<path id="Vector_2" fill-rule="evenodd" clip-rule="evenodd" d="M23.7937 10.7332C23.7524 10.3006 23.67 9.88867 23.5876 9.45588H16.2949C16.3773 9.02334 16.501 8.6114 16.6244 8.19922H23.2375C23.0939 7.76554 22.9289 7.33926 22.7431 6.92195H17.1396C17.3457 6.48559 17.5726 6.05934 17.8195 5.64468H22.0429C21.7711 5.20471 21.4683 4.78475 21.1366 4.38801H18.726C19.0989 3.93266 19.5052 3.50572 19.9415 3.11074C17.8197 1.19484 15.0179 0 11.9277 0C5.35615 0 0 5.377 0 12.0102C0 18.6232 5.35615 24 11.9277 24C15.0179 24 17.8195 22.8255 19.9415 20.8893C20.3711 20.5012 20.7706 20.081 21.1366 19.6324H18.726C18.3963 19.2204 18.108 18.8085 17.8195 18.3551H22.0429C22.3084 17.9477 22.5426 17.5207 22.7433 17.0778H17.1396C16.9542 16.6659 16.7689 16.2539 16.6244 15.8209H23.2375C23.3815 15.409 23.4848 14.9767 23.5873 14.5436C23.6698 14.1317 23.7522 13.6994 23.7934 13.2664C23.8352 12.8487 23.8559 12.4292 23.8555 12.0095C23.8555 11.5776 23.8349 11.1451 23.7937 10.7332Z" fill="#CC2131"/>
<path id="Vector_3" fill-rule="evenodd" clip-rule="evenodd" d="M38.2762 14.7915C38.2762 14.565 38.4411 14.4004 38.647 14.4004C38.8734 14.4004 39.038 14.5653 39.038 14.7915C39.038 14.9976 38.8732 15.183 38.647 15.183C38.4411 15.183 38.2762 14.9973 38.2762 14.7915ZM38.647 15.0798C38.8118 15.0798 38.9556 14.9561 38.9556 14.7915C38.9556 14.6268 38.8116 14.5032 38.647 14.5032C38.5025 14.5032 38.3587 14.6268 38.3587 14.7915C38.3587 14.9561 38.5027 15.0798 38.647 15.0798ZM38.6057 14.9561H38.5233V14.6266H38.7498C38.791 14.6475 38.791 14.6887 38.791 14.7299C38.791 14.7503 38.7706 14.7915 38.7294 14.8123L38.8118 14.9563H38.7085L38.6673 14.8327H38.6057V14.9561V14.7709H38.647C38.6673 14.7709 38.6882 14.7709 38.6882 14.75C38.7085 14.75 38.7085 14.7297 38.7085 14.7088C38.7085 14.7088 38.7085 14.6884 38.6882 14.6884C38.6882 14.6676 38.6673 14.6884 38.647 14.6884H38.6057V14.9561Z" fill="white"/>
<path id="Vector_4" fill-rule="evenodd" clip-rule="evenodd" d="M15.8829 15.4714C15.4916 15.5742 15.203 15.6363 14.9148 15.6363C14.2967 15.6363 13.9258 15.2447 13.9258 14.5443C13.9258 14.4002 13.9464 14.256 13.967 14.0911L14.0494 13.6176L14.1112 13.226L14.6674 9.8476H15.9035L15.7592 10.5893H16.5421L16.3567 11.8253H15.5738L15.2443 13.844C15.2236 13.9473 15.2236 14.0089 15.2236 14.0501C15.2236 14.318 15.3473 14.4209 15.6562 14.4209C15.8005 14.4209 15.9239 14.4005 16.0475 14.3796L15.8829 15.4714ZM19.8796 15.4302C19.4264 15.5539 19.0145 15.6154 18.5611 15.6154C17.1602 15.6154 16.3567 14.8738 16.3567 13.4115C16.3567 11.7014 17.3044 10.4654 18.6227 10.4654C19.6732 10.4654 20.3531 11.1658 20.3531 12.2574C20.3531 12.6286 20.3119 12.9787 20.2091 13.4731H17.6339C17.6133 13.5555 17.6133 13.5967 17.6133 13.638C17.6133 14.2148 18.0046 14.503 18.7463 14.503C19.2201 14.503 19.632 14.4002 20.0854 14.1944L19.8796 15.4302ZM19.1173 12.4843V12.237C19.1173 11.8251 18.8906 11.5984 18.4993 11.5984C18.0871 11.5984 17.7988 11.9073 17.6751 12.4841L19.1173 12.4843ZM5.99446 15.533H4.71719L5.45887 10.857L3.79027 15.533H2.90457L2.80152 10.8776L2.01863 15.533H0.761963L1.77132 9.45603H3.64601L3.68723 13.2056L4.94389 9.45603H7.00406L5.99446 15.533ZM9.10545 13.3291C8.98179 13.3082 8.94057 13.3082 8.85814 13.3082C8.11646 13.3082 7.74574 13.5965 7.74574 14.0499C7.74574 14.359 7.93122 14.5651 8.2195 14.5651C8.83753 14.5651 9.08459 14.0499 9.10545 13.3291ZM10.1354 15.533H9.02301L9.04362 15.0183C8.75509 15.4094 8.36377 15.6154 7.68391 15.6154C7.06589 15.6154 6.53029 15.0595 6.53029 14.256C6.53029 14.0295 6.57151 13.8237 6.63334 13.6176C6.83919 12.8551 7.60148 12.3815 8.7757 12.3607C8.91997 12.3607 9.14642 12.3607 9.35251 12.3815C9.39349 12.2167 9.39349 12.1546 9.39349 12.0518C9.39349 11.722 9.12581 11.619 8.52839 11.619C8.15767 11.619 7.7455 11.6808 7.45721 11.7839L7.27173 11.8251L7.1893 11.8455L7.37478 10.7331C7.97219 10.5476 8.40474 10.4654 8.87875 10.4654C9.99115 10.4654 10.5886 10.9804 10.5886 11.9279C10.5886 12.1752 10.6092 12.3607 10.5267 12.8963L10.2385 14.6679L10.1972 14.9771L10.1766 15.2244L10.156 15.3892L10.1354 15.533ZM26.1011 10.6303C26.4718 10.6303 26.8015 10.7333 27.2547 10.9598L27.4811 9.64127C27.3575 9.57944 27.3163 9.57944 27.1516 9.51761L26.6369 9.37335C26.472 9.33213 26.2662 9.31152 26.0392 9.31152C25.4004 9.31152 25.0296 9.33213 24.6385 9.55883C24.4325 9.70309 24.1645 9.88857 23.876 10.2181L23.7111 10.1769L22.3927 11.1038L22.4547 10.5888H21.0948L20.2918 15.5328H21.5899L22.0634 12.8757C22.0634 12.8757 22.2491 12.5045 22.3313 12.3813C22.5786 12.0722 22.7845 12.0722 23.0521 12.0722H23.1554C23.1122 12.3861 23.0914 12.7028 23.0934 13.0197C23.0934 14.6265 23.9997 15.6361 25.4006 15.6361C25.7509 15.6361 26.0603 15.5948 26.5338 15.4712L26.7608 14.0705C26.3489 14.297 25.9779 14.4 25.6688 14.4C24.9067 14.4 24.4531 13.8232 24.4531 12.9169C24.4526 11.5778 25.1327 10.6303 26.1011 10.6303ZM37.0396 9.45603L36.7515 11.1865C36.4424 10.7127 36.0714 10.486 35.5771 10.486C34.897 10.486 34.2586 10.8773 33.867 11.619V11.5986L33.0431 11.104L33.1256 10.589H31.7453L30.9624 15.533H32.2396L32.6724 12.8759C32.6724 12.8759 33.0019 12.5047 33.0844 12.3815C33.2904 12.1342 33.4963 12.0928 33.6612 12.0724C33.5171 12.4843 33.4347 12.9787 33.4347 13.5352C33.4347 14.7712 34.0731 15.5951 35.0206 15.5951C35.4946 15.5951 35.8654 15.4302 36.2155 15.0386L36.1539 15.533H37.3696L38.3583 9.45603H37.0396ZM35.4537 14.359C35.0209 14.359 34.7944 14.0295 34.7944 13.3906C34.7944 12.4223 35.2063 11.722 35.8035 11.722C36.2567 11.722 36.4836 12.0724 36.4836 12.6904C36.4836 13.6792 36.0717 14.359 35.4537 14.359ZM29.5003 13.3291C29.3767 13.3082 29.3355 13.3082 29.253 13.3082C28.5109 13.3082 28.1401 13.5965 28.1401 14.0499C28.1401 14.359 28.3259 14.5651 28.6141 14.5651C29.2322 14.5651 29.4795 14.0499 29.5003 13.3291ZM30.5303 15.533H29.397L29.4383 15.0183C29.15 15.4094 28.7582 15.6154 28.0788 15.6154C27.4399 15.6154 26.884 15.0799 26.884 14.256C26.884 13.082 27.7694 12.3609 29.1703 12.3609C29.3148 12.3609 29.5411 12.3609 29.7268 12.3818C29.768 12.2169 29.7889 12.1548 29.7889 12.052C29.7889 11.7223 29.5209 11.6192 28.9029 11.6192C28.5526 11.6192 28.12 11.6811 27.8317 11.7841L27.6669 11.8253L27.5844 11.8457L27.7697 10.7333C28.3673 10.5478 28.8001 10.4656 29.2736 10.4656C30.386 10.4656 30.9628 10.9806 30.9628 11.9281C30.9628 12.1754 31.0041 12.3609 30.9013 12.8965L30.6333 14.6682L30.5921 14.9773L30.5509 15.2246L30.5305 15.3895V15.533H30.5303ZM12.834 11.6396C13.0813 11.6396 13.4314 11.6602 13.8024 11.722L13.9878 10.5684C13.6169 10.5272 13.1225 10.4654 12.834 10.4654C11.3921 10.4654 10.9183 11.2483 10.9183 12.1546C10.9183 12.7523 11.186 13.1846 11.8864 13.5141C12.4014 13.7614 12.4839 13.8023 12.4839 14.0293C12.4839 14.3379 12.2162 14.5237 11.7216 14.5237C11.3302 14.5237 10.9593 14.4616 10.5473 14.3176L10.4031 15.4503L10.4234 15.4712L10.6708 15.5124C10.7532 15.5328 10.8562 15.5536 11.0005 15.574C11.3094 15.5948 11.5773 15.6152 11.7422 15.6152C13.1843 15.6152 13.7817 15.0592 13.7817 13.9672C13.7817 13.2876 13.452 12.8757 12.8134 12.5874C12.2572 12.3398 12.1953 12.2991 12.1953 12.0722C12.1953 11.8457 12.4426 11.6396 12.834 11.6396Z" fill="#1B3771"/>
<path id="Vector_5" fill-rule="evenodd" clip-rule="evenodd" d="M27.8316 9.2503L27.6047 10.5688C27.1515 10.3421 26.8218 10.2393 26.4511 10.2393C25.4827 10.2393 24.8031 11.1868 24.8031 12.5259C24.8031 13.4531 25.2562 14.009 26.0188 14.009C26.3274 14.009 26.6984 13.9062 27.1103 13.7004L26.8839 15.0802C26.4099 15.2039 26.101 15.2659 25.7506 15.2659C24.3499 15.2659 23.4846 14.2563 23.4846 12.6292C23.4846 10.466 24.6794 8.94141 26.3893 8.94141C26.6157 8.94141 26.8216 8.96201 26.9864 9.00323L27.5017 9.12689C27.6668 9.18871 27.708 9.20932 27.8316 9.2503ZM23.6701 10.1569H23.5464C23.1141 10.1569 22.8668 10.3629 22.4752 10.9601L22.5989 10.1978H21.4244L20.6214 15.142H21.9195C22.3931 12.1137 22.5167 11.5988 23.1347 11.5988H23.2172C23.3408 11.0013 23.5055 10.5685 23.7115 10.1772L23.6701 10.1569ZM16.2128 15.0802C15.8627 15.2039 15.5742 15.2451 15.2859 15.2451C14.6266 15.2451 14.2557 14.8744 14.2557 14.1535C14.2557 14.0299 14.2763 13.8653 14.2969 13.7207L14.3793 13.2264L14.4411 12.8353L14.9973 9.45639H16.2746L16.1304 10.1981H16.7896L16.6247 11.4135H15.9655L15.6154 13.4737C15.5948 13.5561 15.5948 13.6182 15.5948 13.6798C15.5948 13.9271 15.7184 14.0301 16.0273 14.0301C16.1716 14.0301 16.295 14.0301 16.3774 13.9889L16.2128 15.0802ZM11.248 11.7636C11.248 12.3819 11.5362 12.8142 12.2161 13.1439C12.7517 13.3912 12.8341 13.4734 12.8341 13.6795C12.8341 13.9887 12.6074 14.1327 12.0924 14.1327C11.7011 14.1327 11.3508 14.0711 10.9388 13.9474L10.7533 15.0802L10.8152 15.1011L11.0419 15.1423C11.1241 15.1626 11.2274 15.1835 11.392 15.1835C11.6803 15.2247 11.9276 15.2247 12.0924 15.2247C13.4519 15.2247 14.0908 14.7095 14.0908 13.5767C14.0908 12.8966 13.8231 12.5051 13.1845 12.1964C12.6283 11.9491 12.5665 11.8875 12.5665 11.6608C12.5665 11.3931 12.7932 11.2695 13.2051 11.2695C13.4524 11.2695 13.8025 11.2901 14.1322 11.3313L14.3175 10.1983C13.988 10.1365 13.473 10.0953 13.1845 10.0953C11.7423 10.095 11.2274 10.8573 11.248 11.7636ZM37.6995 15.1423H36.4838L36.5458 14.6683C36.1955 15.039 35.8245 15.2039 35.3505 15.2039C34.403 15.2039 33.785 14.4008 33.785 13.1648C33.785 11.5166 34.7533 10.1156 35.8861 10.1156C36.4013 10.1156 36.7721 10.3423 37.1227 10.7955L37.4109 9.06506H38.6882L37.6995 15.1423ZM35.8039 13.9887C36.4016 13.9887 36.8135 13.2882 36.8135 12.3198C36.8135 11.6812 36.5866 11.3514 36.1334 11.3514C35.5566 11.3514 35.1243 12.0313 35.1243 12.9997C35.1243 13.6592 35.3508 13.9887 35.8039 13.9887ZM20.168 15.039C19.7146 15.1835 19.3027 15.2451 18.8289 15.2451C17.3868 15.2451 16.6451 14.483 16.6451 13.0203C16.6451 11.3311 17.5929 10.0744 18.8907 10.0744C19.9619 10.0744 20.6415 10.7749 20.6415 11.8667C20.6415 12.2376 20.6003 12.588 20.4767 13.1027H17.9226C17.902 13.1648 17.902 13.206 17.902 13.2472C17.902 13.824 18.2936 14.1123 19.035 14.1123C19.5088 14.1123 19.9207 14.0299 20.3741 13.8032L20.168 15.039ZM19.4469 12.0931V11.8461C19.4469 11.4341 19.2202 11.2074 18.8289 11.2074C18.417 11.2074 18.1285 11.5166 18.0048 12.0931H19.4469ZM6.32436 15.1423H5.04709L5.78877 10.4657L4.12017 15.1423H3.23422L3.13118 10.507L2.34852 15.1423H1.15369L2.16304 9.06506H4.01712L4.07895 12.835L5.31476 9.06506H7.33371L6.32436 15.1423ZM9.51754 12.9379C9.39388 12.9379 9.33206 12.9175 9.22901 12.9175C8.50794 12.9175 8.13722 13.1852 8.13722 13.6795C8.13722 13.9887 8.30209 14.1739 8.59037 14.1739C9.12597 14.1739 9.49693 13.6795 9.51754 12.9379ZM10.4651 15.1423H9.39364L9.41425 14.6271C9.0845 15.039 8.65196 15.2247 8.05454 15.2247C7.35408 15.2247 6.88031 14.6891 6.88031 13.8856C6.88031 12.6704 7.70419 11.97 9.14633 11.97C9.29059 11.97 9.47608 11.9906 9.68192 12.0109C9.72314 11.8463 9.72314 11.7845 9.72314 11.702C9.72314 11.3725 9.49644 11.2489 8.89902 11.2489C8.52831 11.2489 8.11613 11.2901 7.82784 11.3725L7.64236 11.4344L7.51871 11.455L7.70419 10.3426C8.34282 10.1571 8.77537 10.0953 9.24938 10.0953C10.3618 10.0953 10.9592 10.5896 10.9592 11.5372C10.9592 11.7845 10.9386 11.97 10.8561 12.5262L10.5676 14.2774L10.5264 14.5861L10.5058 14.8334L10.4852 15.0191L10.4651 15.1423ZM29.9124 12.9379C29.7679 12.9379 29.7063 12.9175 29.6241 12.9175C28.8825 12.9175 28.5113 13.1852 28.5113 13.6795C28.5113 13.9887 28.697 14.1739 28.9853 14.1739C29.5005 14.1739 29.8916 13.6795 29.9124 12.9379ZM30.8599 15.1423H29.7888L29.8091 14.6271C29.4796 15.039 29.0471 15.2247 28.4497 15.2247C27.7492 15.2247 27.2752 14.6891 27.2752 13.8856C27.2752 12.6704 28.0991 11.97 29.5412 11.97C29.6857 11.97 29.8712 11.9906 30.0564 12.0109C30.0977 11.8463 30.1185 11.7845 30.1185 11.702C30.1185 11.3725 29.8916 11.2489 29.2946 11.2489C28.9234 11.2489 28.4911 11.2901 28.2026 11.3725L28.0377 11.4344L27.9141 11.455L28.0993 10.3426C28.7382 10.1571 29.1705 10.0953 29.6445 10.0953C30.7569 10.0953 31.3337 10.5896 31.3337 11.5372C31.3337 11.7845 31.3337 11.97 31.2309 12.5262L30.963 14.2774L30.9218 14.5861L30.8806 14.8334L30.8602 15.0191L30.8599 15.1423ZM34.3208 10.1569H34.1971C33.7648 10.1569 33.5175 10.3629 33.126 10.9601L33.2496 10.1978H32.0751L31.2922 15.142H32.5695C33.0435 12.1137 33.1672 11.5988 33.7852 11.5988H33.8676C33.9913 11.0013 34.1559 10.5685 34.362 10.1772L34.3208 10.1569Z" fill="white"/>
</g>
</svg>
