<svg width="89" height="24" viewBox="0 0 89 24" fill="none" xmlns="http://www.w3.org/2000/svg">
<g id="phonepe-1 1" clip-path="url(#clip0_2039_145)">
<path id="Vector" d="M60.6802 18.8568V14.4996C60.6802 13.4272 60.2779 12.891 59.2727 12.891C58.8704 12.891 58.4014 12.9581 58.1331 13.0249V19.393C58.1331 19.5941 57.932 19.7953 57.7309 19.7953H56.189C55.9879 19.7953 55.7868 19.5941 55.7868 19.393V11.9525C55.7868 11.6842 55.9879 11.4835 56.189 11.4163C57.1946 11.0812 58.1999 10.8801 59.2723 10.8801C61.6855 10.8801 63.0262 12.1536 63.0262 14.4999V19.4602C63.0262 19.6613 62.825 19.8624 62.6239 19.8624H61.6855C61.0824 19.8621 60.6802 19.393 60.6802 18.8568ZM66.7132 16.2425L66.646 16.8459C66.646 17.6504 67.1822 18.1195 68.0535 18.1195C68.7237 18.1195 69.3271 17.9183 69.9976 17.5833C70.0648 17.5833 70.1316 17.5161 70.1987 17.5161C70.3327 17.5161 70.3999 17.5833 70.467 17.6501C70.5342 17.7172 70.6681 17.9183 70.6681 17.9183C70.8021 18.1195 70.9364 18.3874 70.9364 18.5885C70.9364 18.9236 70.7353 19.2587 70.4674 19.393C69.73 19.7953 68.8587 19.9964 67.9203 19.9964C66.8479 19.9964 65.9762 19.7281 65.306 19.1919C64.6358 18.5885 64.2336 17.7844 64.2336 16.7788V14.1645C64.2336 12.0865 65.5743 10.8129 67.8535 10.8129C70.0655 10.8129 71.339 12.0197 71.339 14.1645V15.7731C71.339 15.9743 71.1379 16.1754 70.9368 16.1754H66.7139L66.7132 16.2425ZM66.646 14.7679H69.1931V14.0977C69.1931 13.2932 68.7241 12.757 67.9196 12.757C67.1151 12.757 66.646 13.226 66.646 14.0977V14.7679ZM83.7394 16.2425L83.6722 16.8459C83.6722 17.6504 84.2084 18.1195 85.0797 18.1195C85.7499 18.1195 86.3533 17.9183 87.0238 17.5833C87.091 17.5833 87.1578 17.5161 87.2249 17.5161C87.3589 17.5161 87.4261 17.5833 87.4932 17.6501C87.5604 17.7172 87.6943 17.9183 87.6943 17.9183C87.8283 18.1195 87.9626 18.3874 87.9626 18.5885C87.9626 18.9236 87.7615 19.2587 87.4936 19.393C86.7562 19.7953 85.8849 19.9964 84.9465 19.9964C83.8741 19.9964 83.0024 19.7281 82.3322 19.1919C81.6621 18.5885 81.2598 17.7844 81.2598 16.7788V14.1645C81.2598 12.0865 82.6005 10.8129 84.8797 10.8129C87.0917 10.8129 88.3652 12.0197 88.3652 14.1645V15.7731C88.3652 15.9743 88.1641 16.1754 87.963 16.1754H83.7401V16.2425H83.7394ZM83.6722 14.7679H86.2193V14.0977C86.2193 13.2932 85.7503 12.757 84.9458 12.757C84.1413 12.757 83.6722 13.226 83.6722 14.0977V14.7679ZM44.2574 19.8621H45.1958C45.3969 19.8621 45.5981 19.6609 45.5981 19.4598V14.4996C45.5981 12.2204 44.3913 10.8797 42.3804 10.8797C41.7771 10.8797 41.1069 11.0137 40.7046 11.148V8.66773C40.7046 8.13151 40.2356 7.66211 39.699 7.66211H38.7606C38.5595 7.66211 38.3583 7.86323 38.3583 8.06436V19.4598C38.3583 19.6609 38.5595 19.8621 38.7606 19.8621H40.3024C40.5035 19.8621 40.7046 19.6609 40.7046 19.4598V13.1589C41.0397 13.0249 41.5091 12.9578 41.8442 12.9578C42.8498 12.9578 43.2517 13.4268 43.2517 14.5664V18.9236C43.3189 19.393 43.7211 19.8621 44.2574 19.8621ZM54.3793 14.2313V16.7116C54.3793 18.7896 52.9718 20.0632 50.6254 20.0632C48.3463 20.0632 46.8716 18.7896 46.8716 16.7116V14.2313C46.8716 12.1533 48.2791 10.8797 50.6254 10.8797C52.9718 10.8797 54.3793 12.1536 54.3793 14.2313ZM52.0333 14.2313C52.0333 13.4268 51.5642 12.8906 50.6926 12.8906C49.8209 12.8906 49.3519 13.3597 49.3519 14.2313V16.7116C49.3519 17.5161 49.8209 17.9851 50.6926 17.9851C51.5642 17.9851 52.0333 17.5161 52.0333 16.7116V14.2313ZM37.0851 13.0921C37.0851 15.2373 35.4765 16.712 33.3313 16.712C32.7951 16.712 32.3257 16.6448 31.8566 16.4437V19.4602C31.8566 19.6613 31.6555 19.8624 31.4544 19.8624H29.9126C29.7114 19.8624 29.5103 19.6613 29.5103 19.4602V8.80204C29.5103 8.53376 29.7114 8.33299 29.9126 8.26583C30.9182 7.93075 31.9234 7.72962 32.9959 7.72962C35.409 7.72962 37.0848 9.20429 37.0848 11.4835C37.0851 11.4831 37.0851 13.0921 37.0851 13.0921ZM34.672 11.3491C34.672 10.2767 33.9347 9.7405 32.9291 9.7405C32.3257 9.7405 31.9234 9.94163 31.9234 9.94163V14.3656C32.3257 14.5668 32.5268 14.6339 32.9959 14.6339C34.0015 14.6339 34.7388 14.0305 34.7388 13.0253V11.3495H34.672V11.3491ZM80.3878 13.0921C80.3878 15.2373 78.7792 16.712 76.634 16.712C76.0978 16.712 75.6284 16.6448 75.1593 16.4437V19.4602C75.1593 19.6613 74.9582 19.8624 74.7571 19.8624H73.2152C73.0141 19.8624 72.813 19.6613 72.813 19.4602V8.80204C72.813 8.53376 73.0141 8.33299 73.2152 8.26583C74.2208 7.93075 75.2261 7.72962 76.2985 7.72962C78.7117 7.72962 80.3875 9.20429 80.3875 11.4835C80.3878 11.4831 80.3878 13.0921 80.3878 13.0921ZM77.9747 11.3491C77.9747 10.2767 77.2373 9.7405 76.2317 9.7405C75.6284 9.7405 75.2261 9.94163 75.2261 9.94163V14.3656C75.6284 14.5668 75.8295 14.6339 76.2985 14.6339C77.3041 14.6339 78.0415 14.0305 78.0415 13.0253V11.3495H77.9747V11.3491Z" fill="#5F259F"/>
<path id="Vector_2" d="M11.9988 23.9986C18.6256 23.9986 23.9977 18.6266 23.9977 11.9998C23.9977 5.37303 18.6256 0.000976562 11.9988 0.000976562C5.37206 0.000976562 0 5.37303 0 11.9998C0 18.6266 5.37206 23.9986 11.9988 23.9986Z" fill="#5F259F"/>
<path id="Vector_3" d="M17.4447 8.86892C17.4447 8.39987 17.0425 7.99763 16.5734 7.99763H14.9648L11.2781 3.77474C10.943 3.3725 10.4068 3.23853 9.8706 3.3725L8.59705 3.77474C8.39593 3.8419 8.32877 4.10983 8.46309 4.2438L12.4848 8.06479H6.38434C6.18322 8.06479 6.04926 8.19875 6.04926 8.39987V9.07005C6.04926 9.5391 6.4515 9.94135 6.92055 9.94135H7.85901V13.159C7.85901 15.5721 9.13256 16.98 11.2778 16.98C11.9479 16.98 12.4845 16.9128 13.1547 16.6449V18.7901C13.1547 19.3934 13.6237 19.8625 14.2271 19.8625H15.1655C15.3667 19.8625 15.5678 19.6614 15.5678 19.4602V9.87454H17.1096C17.3107 9.87454 17.4447 9.74058 17.4447 9.53945V8.86892ZM13.1547 14.6336C12.7524 14.8348 12.2162 14.9019 11.814 14.9019C10.7415 14.9019 10.2053 14.3657 10.2053 13.159V9.94135H13.1547V14.6336Z" fill="white"/>
</g>
<defs>
<clipPath id="clip0_2039_145">
<rect width="88.3652" height="24" fill="white"/>
</clipPath>
</defs>
</svg>
