<svg width="48" height="24" viewBox="0 0 48 24" fill="none" xmlns="http://www.w3.org/2000/svg">
<g id="upi-ar21 1">
<path id="Vector" fill-rule="evenodd" clip-rule="evenodd" d="M38.2712 17.1597L44 11.9337L41.2864 6.52734L38.2712 17.1597Z" fill="#097939"/>
<path id="Vector_2" fill-rule="evenodd" clip-rule="evenodd" d="M36.3416 17.1597L42.0704 11.9337L39.3568 6.52734L36.3416 17.1597Z" fill="#ED752E"/>
<path id="Vector_3" fill-rule="evenodd" clip-rule="evenodd" d="M8.96398 6.58795L6.55198 15.178L15.1148 15.238L17.4668 6.58795H19.6376L16.8176 16.644C16.7096 17.028 16.2984 17.34 15.8996 17.34H4.92398C4.25838 17.34 3.86398 16.82 4.04398 16.18L6.73358 6.58795H8.96398ZM35.4368 6.52795H37.6076L34.5924 17.34H32.3604L35.4368 6.52795ZM19.8792 11.0328L30.7336 10.9728L31.4576 8.68995H20.4216L21.0848 6.58755L32.8448 6.47955C33.5768 6.47275 34.0128 7.03955 33.82 7.74635L32.712 11.796C32.5188 12.5024 31.768 13.0748 31.036 13.0748H21.3264L20.1816 17.52H18.0696L19.8792 11.0328Z" fill="#747474"/>
</g>
</svg>
