<svg width="74" height="24" viewBox="0 0 74 24" fill="none" xmlns="http://www.w3.org/2000/svg">
<g id="visa-10 1" clip-path="url(#clip0_2039_129)">
<path id="Vector" d="M48.1283 0.0292969C42.8817 0.0292969 38.1931 2.74872 38.1931 7.77305C38.1931 13.535 46.5085 13.9329 46.5085 16.8275C46.5085 18.0464 45.1118 19.1374 42.7261 19.1374C39.3405 19.1374 36.8101 17.6129 36.8101 17.6129L35.7274 22.683C35.7274 22.683 38.6424 23.9708 42.5125 23.9708C48.2487 23.9708 52.7624 21.1178 52.7624 16.0076C52.7624 9.91909 44.4124 9.53291 44.4124 6.84626C44.4124 5.89137 45.559 4.84527 47.9378 4.84527C50.6217 4.84527 52.8115 5.95401 52.8115 5.95401L53.8711 1.0572C53.8711 1.0572 51.4885 0.0292969 48.1283 0.0292969ZM0.127073 0.398903L0 1.13804C0 1.13804 2.20728 1.54197 4.19525 2.34782C6.75491 3.2718 6.93731 3.80975 7.36838 5.48049L12.0659 23.5896H18.3632L28.0645 0.398903H21.7818L15.5481 16.1664L13.0044 2.80108C12.7711 1.27147 11.5894 0.398903 10.143 0.398903H0.127073ZM30.5909 0.398903L25.6623 23.5896H31.6534L36.5647 0.398829H30.5909V0.398903ZM64.0055 0.398903C62.5608 0.398903 61.7954 1.17236 61.2337 2.52393L52.4563 23.5896H58.7391L59.9547 20.0786H67.6088L68.348 23.5896H73.8916L69.0554 0.398903H64.0055ZM64.8226 6.66431L66.6849 15.3666H61.6957L64.8226 6.66431Z" fill="#1434CB"/>
</g>
<defs>
<clipPath id="clip0_2039_129">
<rect width="73.8916" height="24" fill="white"/>
</clipPath>
</defs>
</svg>
