<svg width="48" height="44" viewBox="0 0 48 44" fill="none" xmlns="http://www.w3.org/2000/svg">
<path id="Vector" d="M9.09877 27.2963H27.2963V25.3951H9.09877V27.2963ZM9.09877 19.1481H38.1605V17.2469H9.09877V19.1481ZM9.09877 11H38.1605V9.09877H9.09877V11ZM0 44V4.07407C0 2.89712 0.384774 1.92387 1.15432 1.15432C1.92387 0.384774 2.89712 0 4.07407 0H43.1852C44.3621 0 45.3354 0.384774 46.1049 1.15432C46.8745 1.92387 47.2593 2.89712 47.2593 4.07407V32.321C47.2593 33.4979 46.8745 34.4712 46.1049 35.2407C45.3354 36.0103 44.3621 36.3951 43.1852 36.3951H7.60494L0 44ZM6.79012 34.4938H43.1852C43.7284 34.4938 44.2263 34.2675 44.679 33.8148C45.1317 33.3621 45.358 32.8642 45.358 32.321V4.07407C45.358 3.53086 45.1317 3.03292 44.679 2.58025C44.2263 2.12757 43.7284 1.90123 43.1852 1.90123H4.07407C3.53086 1.90123 3.03292 2.12757 2.58025 2.58025C2.12757 3.03292 1.90123 3.53086 1.90123 4.07407V39.3827L6.79012 34.4938Z" fill="url(#paint0_linear_1276_304)"/>
<defs>
<linearGradient id="paint0_linear_1276_304" x1="23.6296" y1="0" x2="23.6296" y2="44" gradientUnits="userSpaceOnUse">
<stop stop-color="#0F52BA"/>
<stop offset="1" stop-color="#8225AF"/>
</linearGradient>
</defs>
</svg>
