<svg width="88" height="71" viewBox="0 0 88 71" fill="none" xmlns="http://www.w3.org/2000/svg">
<path d="M86.6632 62V61H85.6632H83.7677C83.5693 61 83.4384 60.9792 83.359 60.9568C83.3494 60.9541 83.3409 60.9515 83.3333 60.949C83.3181 60.8941 83.3014 60.7963 83.3014 60.6409V56.2049H85.5917H86.5917V55.2049V48.5887V47.5887H85.5917H83.3014V43.7249V42.7249H82.3014H74.362H73.362V43.7249V47.5887H71.8585H70.8585V48.5887V55.2049V56.2049H71.8585H73.362V60.4979C73.362 63.4069 74.0932 65.7721 75.7307 67.4025C77.3673 69.0322 79.7403 69.7592 82.6591 69.7592H85.6632H86.6632V68.7592V62Z" stroke="#B79EFF" stroke-width="2"/>
<path d="M69.673 69.7587H70.673V68.7587V57.0641C70.673 54.2558 69.9757 51.9059 68.4723 50.1272C66.9657 48.3158 64.8649 47.4451 62.3057 47.4451C60.7343 47.4451 59.3177 47.7734 58.0923 48.4697L58.0923 48.4697L58.0837 48.4746C57.7432 48.6726 57.4214 48.8889 57.1187 49.1235V48.5881V47.5881H56.1187H48.1792H47.1792V48.5881V68.7587V69.7587H48.1792H56.1187H57.1187V68.7587V58.0654C57.1187 57.288 57.3193 56.803 57.6082 56.4866L57.6153 56.4788L57.6223 56.4708C57.9019 56.1513 58.2991 55.954 58.944 55.954C59.5554 55.954 59.9448 56.145 60.2299 56.4708L60.2445 56.4875L60.2599 56.5036C60.5637 56.8212 60.7693 57.3 60.7693 58.0654V68.7587V69.7587H61.7693H69.673Z" stroke="#B79EFF" stroke-width="2"/>
<path d="M46.3423 61.0688H46.4255L46.5482 60.2102C46.6269 59.6589 46.6655 59.087 46.6655 58.4952C46.6655 56.2787 46.1935 54.3014 45.211 52.5995C44.2572 50.9062 42.9003 49.6034 41.1605 48.7053C39.4479 47.785 37.5075 47.3384 35.3657 47.3384C33.2202 47.3384 31.2677 47.7865 29.5326 48.7066L29.5326 48.7066L29.527 48.7096C27.8057 49.6365 26.4536 50.9783 25.481 52.7132L25.481 52.7132L25.4785 52.7177C24.5241 54.4409 24.0658 56.4377 24.0658 58.674C24.0658 60.9108 24.5243 62.9167 25.4754 64.6604L25.4797 64.6684L25.4842 64.6763C26.4579 66.3869 27.8098 67.7137 29.527 68.6384L29.527 68.6384L29.5326 68.6414C31.2677 69.5615 33.2202 70.0096 35.3657 70.0096C37.1665 70.0096 38.8383 69.6615 40.3654 68.9506L40.3654 68.9506L40.3721 68.9474C41.9029 68.221 43.182 67.2371 44.1896 65.991C45.2201 64.7223 45.8987 63.2865 46.2169 61.6954L46.3423 61.0688ZM34.007 61.0688H35.9294C35.8048 61.3235 35.6695 61.4612 35.5451 61.5401C35.4209 61.619 35.2443 61.6795 34.9723 61.6795C34.5427 61.6795 34.332 61.5521 34.1929 61.3856C34.1295 61.3098 34.0654 61.2067 34.007 61.0688ZM35.7699 55.5997H34.8998C35.0319 55.5754 35.1859 55.5612 35.3657 55.5612C35.5163 55.5612 35.6501 55.5747 35.7699 55.5997Z" stroke="#B79EFF" stroke-width="2"/>
<path d="M5.59243 67.7058L5.59238 67.7059L5.60356 67.7138C7.78954 69.2677 10.5095 70.0088 13.6933 70.0088C15.8093 70.0088 17.6912 69.6436 19.3083 68.8748C20.9129 68.112 22.176 67.0382 23.052 65.6421L23.052 65.6421L23.0566 65.6347C23.9229 64.227 24.3494 62.6486 24.3494 60.9263C24.3494 59.2694 23.9184 57.8127 22.9933 56.6274C22.1478 55.5441 21.1342 54.6872 19.9545 54.0698C18.8776 53.4941 17.5238 52.9053 15.9051 52.3012C15.8138 52.2665 15.7243 52.2323 15.6367 52.1986H23.0275H24.0649L24.0268 51.1619C23.9221 48.308 22.8442 46.0024 20.7477 44.3677C18.7075 42.7581 16.0096 42.0088 12.7634 42.0088C10.8186 42.0088 9.03204 42.3247 7.41833 42.9754L7.41832 42.9754L7.41307 42.9776C5.8034 43.6373 4.49369 44.6284 3.51736 45.9573L3.51736 45.9573L3.51524 45.9602C2.53793 47.3005 2.07276 48.9079 2.07153 50.7264C2.04659 52.5262 2.45188 54.0987 3.37146 55.3631C4.21624 56.5247 5.2366 57.4309 6.43496 58.0573L6.43494 58.0574L6.4431 58.0615C7.46834 58.5855 8.7145 59.1111 10.1738 59.6402H3H1.93728L2.00185 60.7009C2.1841 63.6951 3.36329 66.0747 5.59243 67.7058ZM13.4806 51.2319L13.4825 51.2888C13.3079 51.2044 13.1536 51.1251 13.0192 51.0511C12.6199 50.8005 12.5832 50.6106 12.5832 50.4833C12.5832 50.3668 12.5989 50.3023 12.6087 50.274C12.6117 50.2653 12.6141 50.26 12.6155 50.2573L12.6308 50.242L12.6484 50.2225C12.6587 50.211 12.6653 50.2058 12.6677 50.2041L12.6699 50.2026L12.6704 50.2023L12.6727 50.2015C12.6742 50.201 12.6769 50.2003 12.6809 50.1995C12.6888 50.198 12.7038 50.1959 12.7276 50.1959C12.9651 50.1959 13.1237 50.264 13.2632 50.3936C13.315 50.4417 13.4607 50.6353 13.4806 51.2319ZM12.6169 50.2549C12.6169 50.255 12.6167 50.2553 12.6162 50.256L12.6169 50.2549ZM12.4368 60.5585L12.4321 60.501C12.8465 60.6823 13.1789 60.8487 13.4338 60.9998L13.4458 61.0069L13.458 61.0136C13.8723 61.2438 13.9092 61.4278 13.9092 61.57C13.9092 61.6642 13.8925 61.6984 13.892 61.6995C13.8919 61.6996 13.8918 61.6998 13.8918 61.6999C13.8913 61.7004 13.8903 61.7015 13.8884 61.7032C13.8868 61.7046 13.8844 61.7066 13.881 61.7092C13.7942 61.7644 13.643 61.8217 13.3714 61.8217C13.0102 61.8217 12.8549 61.7194 12.7611 61.6135C12.6384 61.4749 12.4872 61.173 12.4368 60.5585Z" stroke="#B79EFF" stroke-width="2"/>
<path d="M60.3386 11.2243C60.0791 11.2644 31.5149 17.1258 31.2582 17.191C30.8928 17.2817 30.4002 17.6374 30.1563 17.9888C29.8809 18.3925 29.7758 19.1117 29.9296 19.5554C30.0418 19.8893 30.3427 20.2993 30.5993 20.4755C30.697 20.5355 33.1325 21.6703 36.0144 23.0017L41.2524 25.4098L41.6258 25.2085C43.9533 23.9545 52.2798 19.4888 52.3527 19.4533C52.4845 19.3932 52.732 19.1103 48.2898 24.0617C46.073 26.5287 44.2027 28.6181 44.1297 28.7031C43.9983 28.8561 43.9975 28.8622 45.1138 34.5043C45.7315 37.6103 46.2719 40.2561 46.312 40.378C46.4265 40.6937 46.7436 41.0745 47.059 41.2755C47.4546 41.5285 48.1786 41.5941 48.6354 41.4204C49.034 41.2651 49.4946 40.8689 49.6679 40.5346C49.7411 40.4001 52.599 34.3063 56.0228 26.9981C61.9483 14.3379 62.2498 13.6832 62.3058 13.2496C62.4077 12.5054 62.1375 11.9066 61.5355 11.5201C61.2317 11.3264 60.6306 11.175 60.3386 11.2243Z" fill="#B79EFF"/>
</svg>
