<svg width="58" height="44" viewBox="0 0 58 44" fill="none" xmlns="http://www.w3.org/2000/svg">
<path id="Vector" d="M47.3841 23.6924V20.5496H57.5379V23.6924H47.3841ZM50.7933 44L42.6698 37.9076L44.6286 35.4176L52.7513 41.5101L50.7933 44ZM44.3866 8.58236L42.4286 6.09243L50.5513 0L52.5093 2.48993L44.3866 8.58236ZM8.34036 40.8571V28.8899H5.0765C3.6706 28.8899 2.4729 28.3955 1.48343 27.4065C0.494476 26.417 0 25.2193 0 23.8134V20.4286C0 19.0227 0.494476 17.825 1.48343 16.8355C2.4729 15.8465 3.6706 15.3521 5.0765 15.3521H16.8017L29.2521 7.97814V36.2639L16.8017 28.8899H11.4832V40.8571H8.34036ZM26.1093 30.6672V13.5748L17.6841 18.4949H5.0765C4.59302 18.4949 4.14988 18.6963 3.74707 19.0991C3.34426 19.5019 3.14286 19.9451 3.14286 20.4286V23.8134C3.14286 24.2969 3.34426 24.74 3.74707 25.1429C4.14988 25.5457 4.59302 25.7471 5.0765 25.7471H17.6841L26.1093 30.6672ZM34.8126 31.1991V13.0429C35.8645 14.0182 36.7117 15.2986 37.3544 16.8842C37.9971 18.4698 38.3185 20.2154 38.3185 22.121C38.3185 24.0266 37.9971 25.7722 37.3544 27.3578C36.7117 28.9434 35.8645 30.2238 34.8126 31.1991Z" fill="url(#paint0_linear_2039_66)"/>
<defs>
<linearGradient id="paint0_linear_2039_66" x1="4.99323" y1="-4.4" x2="42.6904" y2="56.2046" gradientUnits="userSpaceOnUse">
<stop stop-color="#0F52BA"/>
<stop offset="1" stop-color="#8225AF"/>
</linearGradient>
</defs>
</svg>
