<svg width="20" height="18" viewBox="0 0 20 18" fill="none" xmlns="http://www.w3.org/2000/svg">
<path id="Vector" d="M12.9216 0H5.00156C4.27116 0 3.64636 0.44 3.38236 1.0736L0.724762 7.2776C0.645562 7.48 0.601562 7.6912 0.601562 7.92V9.68C0.601562 10.648 1.39356 11.44 2.36156 11.44H7.91436L7.07836 15.4616L7.05196 15.7432C7.05196 16.104 7.20156 16.4384 7.43916 16.676L8.37196 17.6L14.1712 11.8008C14.488 11.484 14.6816 11.044 14.6816 10.56V1.76C14.6816 0.792 13.8896 0 12.9216 0ZM16.4416 0V10.56H19.9616V0H16.4416Z" fill="#4280DE"/>
</svg>
