<svg width="44" height="44" viewBox="0 0 44 44" fill="none" xmlns="http://www.w3.org/2000/svg">
<path d="M27.5456 0.0393617C26.0841 0.211307 24.5108 0.580989 23.4189 1.01945C18.7248 2.88505 15.3117 6.85699 14.1769 11.7832C13.9533 12.7461 14.0737 12.6601 12.7497 12.7461C11.3054 12.8407 9.3538 13.3995 7.82349 14.1733C4.47915 15.8497 1.89998 18.8158 0.730748 22.3493C-0.885537 27.2153 0.214913 32.4338 3.67961 36.3112L4.37599 37.085V39.8791C4.37599 42.4067 4.39318 42.7076 4.53933 43.0171C4.91761 43.8424 5.85472 44.2207 6.68005 43.8682C6.87779 43.7908 7.60856 43.1288 8.64883 42.0972L10.2995 40.4551L10.9701 40.5926C12.8099 40.9795 14.8131 41.0311 16.5325 40.7388C21.0375 39.9736 24.9234 37.0334 26.8922 32.9153C27.2963 32.0642 27.8465 30.551 27.8465 30.2845C27.8465 30.19 28.0614 30.1642 28.9985 30.1642C30.2709 30.1642 31.1135 30.0696 32.2655 29.8031L33.0221 29.6311L34.8017 31.3936C35.7732 32.3565 36.7017 33.2162 36.865 33.3022C37.08 33.4053 37.3035 33.4397 37.6904 33.4139C38.3094 33.3795 38.6962 33.156 39.0315 32.6746L39.2379 32.3651L39.2637 29.2357L39.2895 26.0977L39.8569 25.4873C42.1695 22.994 43.5537 19.9764 43.9148 16.6493C44.2243 13.8809 43.6913 10.9321 42.4361 8.41309C42.0578 7.64794 41.9374 7.48459 41.6709 7.35563C41.3012 7.17509 41.0089 7.22667 40.6994 7.52758C40.3985 7.83708 40.4243 8.20676 40.794 8.94612C42.3157 11.9724 42.6768 15.3511 41.8171 18.5407C41.2238 20.7416 40.0632 22.7963 38.4813 24.404C38.0944 24.8081 37.7334 25.1949 37.6904 25.2637C37.6388 25.3325 37.5872 26.7682 37.5614 28.5307L37.5184 31.6687L35.627 29.7945C34.5868 28.7628 33.6497 27.8773 33.5379 27.8343C33.4003 27.7827 33.065 27.8343 32.3773 28.0062C30.9587 28.3759 29.9442 28.4791 28.328 28.4189C25.8519 28.3329 23.7456 27.671 21.6565 26.3212C18.6474 24.3696 16.5927 21.3864 15.7846 17.8013C15.6298 17.0877 15.604 16.7009 15.604 15.076C15.604 13.3307 15.6212 13.1072 15.8275 12.2389C16.6787 8.65381 18.742 5.72215 21.794 3.75338C22.9805 2.98822 24.8375 2.26605 26.4108 1.94795C27.7863 1.67284 30.1506 1.67284 31.4574 1.95655C32.6524 2.20587 33.7098 2.56696 34.8017 3.09139C35.2917 3.32352 35.7818 3.51265 35.8935 3.51265C36.4696 3.51265 36.8736 2.97103 36.7017 2.438C36.5813 2.07691 36.332 1.88777 35.3949 1.44931C33.8646 0.73574 32.1623 0.26289 30.4945 0.082348C29.7121 -0.00362459 28.1388 -0.0294164 27.5456 0.0393617ZM13.8588 15.8239C13.9447 18.2312 14.452 20.0194 15.7931 22.6158C15.8103 22.6588 15.7416 22.6845 15.647 22.6845C15.3375 22.6845 14.4262 23.0284 14.0651 23.2778L13.7212 23.5185L13.2398 23.2262C12.5262 22.7963 11.9674 22.6588 11.0818 22.7017C10.4457 22.7275 10.2393 22.7791 9.74068 23.0284C8.29634 23.7334 7.45381 25.3153 7.71172 26.8456C7.90086 28.0148 8.01263 28.161 10.8067 30.9551C13.2913 33.4483 13.3687 33.5171 13.704 33.5171C14.0307 33.5171 14.1081 33.4483 16.4809 31.0841C18.9311 28.6424 19.3094 28.1954 19.5587 27.4732L19.6877 27.0863L20.5216 27.6452C21.9832 28.6167 24.0981 29.528 25.594 29.8203C25.8863 29.8805 26.1271 29.975 26.1271 30.0266C26.1271 30.2931 25.5768 31.7031 25.147 32.537C23.823 35.1248 21.4415 37.2827 18.7936 38.323C17.1429 38.9678 15.9049 39.1999 14.1253 39.1999C12.8443 39.1999 12.0963 39.1053 10.8841 38.7872C10.3597 38.6583 9.95561 38.5981 9.80946 38.6325C9.6719 38.6669 8.90674 39.3546 7.84068 40.4207L6.09544 42.1487V39.3288C6.09544 37.3773 6.06105 36.4574 6.00087 36.3284C5.94069 36.2252 5.56241 35.7868 5.14114 35.3483C3.51626 33.6375 2.47599 31.6257 1.95156 29.1841C1.70224 27.9977 1.68504 25.8569 1.91717 24.6189C2.39862 22.0312 3.52486 19.9076 5.39906 18.042C6.88639 16.5547 8.43389 15.6004 10.3081 14.9986C11.3656 14.6547 13.4633 14.2936 13.7556 14.4054C13.7814 14.414 13.833 15.0588 13.8588 15.8239ZM12.0705 24.533C12.2425 24.6017 12.5864 24.8597 12.8529 25.109C13.2827 25.513 13.3773 25.5646 13.704 25.5646C14.0307 25.5646 14.1253 25.513 14.5551 25.109C15.1312 24.5673 15.4836 24.404 16.0855 24.404C17.5212 24.4126 18.4583 25.9257 17.8135 27.1981C17.7447 27.3357 16.7904 28.3587 15.6986 29.4592L13.704 31.4537L11.7868 29.5452C10.7294 28.4877 9.77507 27.4732 9.6633 27.2841C9.07869 26.2954 9.49995 24.9972 10.566 24.5416C10.9529 24.3782 11.6923 24.3696 12.0705 24.533Z" fill="white"/>
<path d="M38.3869 4.42372C37.9484 4.87078 38.1204 5.66173 38.705 5.81648C39.0833 5.91105 39.324 5.85087 39.5819 5.60154C39.8914 5.29204 39.8828 4.74182 39.5733 4.42372C39.3928 4.25177 39.2552 4.20019 38.9801 4.20019C38.705 4.20019 38.5674 4.25177 38.3869 4.42372Z" fill="white"/>
<path d="M25.5256 10.3307C24.3822 10.5886 23.4107 11.3624 22.8863 12.437C22.5682 13.0818 22.5596 13.1076 22.5596 14.0791C22.5596 15.0506 22.5682 15.0936 22.8863 15.7556C23.1872 16.3918 23.3505 16.5809 25.7234 18.9623C27.0989 20.3551 28.3369 21.5501 28.4659 21.6189C28.5948 21.6877 28.827 21.7393 28.9817 21.7393C29.2396 21.7393 29.5148 21.4899 31.9822 19.0053C34.9568 16.0135 35.0514 15.8931 35.2577 14.6809C35.5328 13.0818 34.6215 11.3366 33.1514 10.6488C31.8532 10.0384 30.6152 10.1072 29.3772 10.8637L28.8872 11.1646L28.5003 10.8981C27.6663 10.3393 26.4799 10.1158 25.5256 10.3307ZM26.9614 12.0673C27.2709 12.1619 27.5632 12.3511 27.9672 12.7121C28.4659 13.1678 28.5777 13.228 28.8872 13.228C29.1881 13.228 29.3084 13.1678 29.7125 12.7981C30.4003 12.1619 30.7871 11.99 31.4577 11.99C32.1541 11.9814 32.8075 12.3081 33.1772 12.8411C33.6156 13.4773 33.7016 14.1049 33.4695 14.8271C33.3405 15.1967 33.0396 15.532 31.1224 17.4664L28.9301 19.6759L26.755 17.5094C25.4053 16.1596 24.5111 15.2053 24.408 14.9818C23.8835 13.8986 24.5283 12.437 25.6976 12.0673C26.2048 11.9126 26.4369 11.9126 26.9614 12.0673Z" fill="white"/>
</svg>
