<svg width="16" height="14" viewBox="0 0 16 14" fill="none" xmlns="http://www.w3.org/2000/svg">
<path id="Vector" d="M7.65714 6C6.80857 6 6.09643 5.71214 5.52071 5.13643C4.945 4.56072 4.65714 3.84381 4.65714 2.98571C4.65714 2.12762 4.945 1.41548 5.52071 0.849285C6.09643 0.283095 6.80857 0 7.65714 0C8.50571 0 9.21786 0.283095 9.79357 0.849285C10.3693 1.41548 10.6571 2.12762 10.6571 2.98571C10.6571 3.84381 10.3693 4.56072 9.79357 5.13643C9.21786 5.71214 8.50571 6 7.65714 6ZM0 14V12.6571C0 12.219 0.133333 11.819 0.4 11.4571C0.666667 11.0952 1.01905 10.8095 1.45714 10.6C2.54286 10.1238 3.5997 9.7619 4.62769 9.51429C5.65567 9.26667 6.66519 9.14286 7.65626 9.14286C8.64732 9.14286 9.65714 9.26667 10.6857 9.51429C11.7143 9.7619 12.7664 10.1276 13.8422 10.6114C14.2934 10.8154 14.6516 11.0978 14.9167 11.4587C15.1817 11.8196 15.3143 12.219 15.3143 12.6571V14H0ZM0.628571 13.3714H14.6857V12.6571C14.6857 12.3714 14.5857 12.0952 14.3857 11.8286C14.1857 11.5619 13.9048 11.3333 13.5429 11.1429C12.5714 10.6667 11.5982 10.319 10.6232 10.1C9.64826 9.88095 8.65956 9.77143 7.65714 9.77143C6.65474 9.77143 5.66129 9.88095 4.67677 10.1C3.69226 10.319 2.72381 10.6667 1.77143 11.1429C1.40952 11.3333 1.12857 11.5619 0.928571 11.8286C0.728571 12.0952 0.628571 12.3714 0.628571 12.6571V13.3714ZM7.65714 5.37143C8.32381 5.37143 8.88571 5.14286 9.34286 4.68571C9.8 4.22857 10.0286 3.66667 10.0286 3C10.0286 2.33333 9.8 1.77143 9.34286 1.31429C8.88571 0.857143 8.32381 0.628571 7.65714 0.628571C6.99048 0.628571 6.42857 0.857143 5.97143 1.31429C5.51429 1.77143 5.28571 2.33333 5.28571 3C5.28571 3.66667 5.51429 4.22857 5.97143 4.68571C6.42857 5.14286 6.99048 5.37143 7.65714 5.37143Z" fill="#AEAEAE"/>
</svg>
