<svg width="34" height="34" viewBox="0 0 34 34" fill="none" xmlns="http://www.w3.org/2000/svg">
<g id="Group 2610">
<circle id="Ellipse 153" cx="17" cy="17" r="16.5" stroke="#E6E6E6"/>
<path id="Vector" d="M17.0463 8C12.0503 8 8 12.0503 8 17.0463C8 21.5817 11.3409 25.3265 15.6943 25.9807V19.4439H13.4561V17.066H15.6943V15.4837C15.6943 12.864 16.9706 11.7139 19.1479 11.7139C20.1907 11.7139 20.7421 11.7912 21.0032 11.8266V13.9023H19.5179C18.5936 13.9023 18.2708 14.7785 18.2708 15.7662V17.066H20.9797L20.6121 19.4439H18.2708V26C22.6862 25.4009 26.0925 21.6257 26.0925 17.0463C26.0925 12.0503 22.0423 8 17.0463 8Z" fill="#0F52BA"/>
</g>
</svg>
