<svg width="34" height="34" viewBox="0 0 34 34" fill="none" xmlns="http://www.w3.org/2000/svg">
<g id="Group 2611">
<circle id="Ellipse 152" cx="17" cy="17" r="16.5" stroke="#E6E6E6"/>
<g id="Group 1423">
<path id="Vector" d="M25.8244 15.2371H25.0995V15.1998H16.9997V18.7997H22.0859C21.3439 20.8953 19.35 22.3996 16.9997 22.3996C14.0177 22.3996 11.5999 19.9818 11.5999 16.9997C11.5999 14.0177 14.0177 11.5999 16.9997 11.5999C18.3762 11.5999 19.6286 12.1192 20.5821 12.9674L23.1277 10.4218C21.5203 8.92382 19.3703 8 16.9997 8C12.0296 8 8 12.0296 8 16.9997C8 21.9698 12.0296 25.9995 16.9997 25.9995C21.9698 25.9995 25.9995 21.9698 25.9995 16.9997C25.9995 16.3963 25.9374 15.8073 25.8244 15.2371Z" fill="#FFC107"/>
<path id="Vector_2" d="M9.03711 12.8108L11.994 14.9793C12.794 12.9985 14.7317 11.5999 16.9992 11.5999C18.3757 11.5999 19.628 12.1192 20.5815 12.9674L23.1271 10.4218C21.5197 8.92382 19.3697 8 16.9992 8C13.5424 8 10.5446 9.95159 9.03711 12.8108Z" fill="#FF3D00"/>
<path id="Vector_3" d="M16.9998 25.9997C19.3244 25.9997 21.4367 25.1101 23.0337 23.6634L20.2483 21.3063C19.3447 21.9908 18.2215 22.3998 16.9998 22.3998C14.659 22.3998 12.6714 20.9072 11.9226 18.8242L8.98779 21.0854C10.4772 24 13.5021 25.9997 16.9998 25.9997Z" fill="#4CAF50"/>
<path id="Vector_4" d="M25.8246 15.2366H25.0996V15.1992H16.9999V18.7991H22.0861C21.7297 19.8057 21.0822 20.6738 20.247 21.306L20.2483 21.3051L23.0338 23.6621C22.8367 23.8412 25.9996 21.499 25.9996 16.9992C25.9996 16.3957 25.9375 15.8067 25.8246 15.2366Z" fill="#1976D2"/>
</g>
</g>
</svg>
