<svg width="46" height="44" viewBox="0 0 46 44" fill="none" xmlns="http://www.w3.org/2000/svg">
<g id="Group">
<path id="Vector" d="M23.4546 0.259415C22.9537 0.70668 22.9984 0.87664 24.4833 3.70336L25.7893 6.20805L24.8322 6.53008C22.0591 7.46933 19.5008 9.21367 17.7117 11.3784L17.014 12.2282L15.4754 12.2819C12.8634 12.3714 10.9043 12.8544 8.71273 13.9547C4.66051 15.9853 1.53859 19.8496 0.456211 24.1971C0.0894531 25.6551 0 26.4334 0 28.133C0 29.8326 0.0894531 30.6109 0.456211 32.0689C0.894531 33.8312 1.78012 35.7455 2.88039 37.3019C3.64074 38.3933 5.55504 40.3076 6.65531 41.0858C7.67508 41.8104 9.70566 42.8391 10.8149 43.1969C15.5917 44.7355 20.5295 44.0467 24.7069 41.2737C25.8162 40.5312 27.5158 38.9568 28.2582 37.9818L28.7055 37.3914L29.3317 37.4451C30.6824 37.5524 33.205 37.1946 34.7794 36.6668C40.7638 34.672 44.9681 29.4837 45.6479 23.2399C46.3725 16.6383 42.7765 10.1887 36.7563 7.29043C35.9333 6.89684 35.486 6.71793 34.2337 6.30644C34.1711 6.28856 34.5826 5.32246 35.3429 3.73914C36.7205 0.87664 36.7742 0.697735 36.2822 0.259415L35.9959 0H29.8684H23.7409L23.4546 0.259415ZM33.697 3.01457C33.375 3.69441 32.9366 4.62473 32.7219 5.08988C32.391 5.79656 32.3015 5.91285 32.1763 5.85023C32.0868 5.81445 31.0134 5.76973 29.7968 5.76973L27.5694 5.76078L26.5407 3.77492L25.521 1.78906H29.9042H34.2874L33.697 3.01457ZM32.7041 7.77348C37.1857 8.73957 40.9337 11.781 42.7586 15.9227C43.9751 18.6778 44.2614 21.7818 43.5815 24.7338C42.3471 30.0831 38.0712 34.2605 32.6862 35.3698C31.9437 35.5218 29.931 35.7365 29.8594 35.6649C29.8416 35.6471 29.9757 35.2982 30.1725 34.9046C30.3604 34.5021 30.5661 34.0548 30.6108 33.9027C30.7003 33.6701 30.754 33.6344 31.0313 33.6344C31.5501 33.6344 33.044 33.3034 33.9117 32.9992C37.9549 31.568 40.8622 28.2135 41.7835 23.884C42.0072 22.8105 42.0072 20.2969 41.7746 19.2414C40.9516 15.4575 38.6348 12.425 35.2892 10.7433C33.5986 9.89351 31.8453 9.48203 29.8684 9.48203C28.455 9.48203 27.3011 9.66093 26.0935 10.0635C21.8892 11.4679 18.9193 14.8134 17.9622 19.2414C17.7296 20.2969 17.7296 22.8105 17.9532 23.884C18.311 25.5389 19.0088 27.1937 19.9212 28.5355C20.9231 29.9936 22.7837 31.5948 24.4386 32.4178L25.0916 32.7488L24.8501 33.1692C24.4565 33.8491 24.0987 34.35 24.0003 34.35C23.7498 34.35 22.1039 33.3839 21.2809 32.7488C15.3412 28.1777 14.0352 19.6797 18.3289 13.4985C19.0625 12.4429 20.8962 10.636 21.9518 9.93824C23.5441 8.88269 25.2973 8.14023 27.0417 7.79137C28.294 7.53195 28.3745 7.53195 30.1815 7.55879C31.4338 7.58562 32.0421 7.63035 32.7041 7.77348ZM31.9079 11.4589C33.8401 11.8436 35.5308 12.7202 36.962 14.0799C40.2718 17.2108 41.1395 22.1039 39.0999 26.165C38.599 27.1759 38.1249 27.8378 37.3109 28.6876C36.1748 29.8773 34.9135 30.7182 33.4465 31.2639C32.7935 31.5143 31.3801 31.8542 31.3175 31.7827C31.2907 31.7648 31.3086 31.6127 31.3533 31.4607C31.3891 31.2996 31.4875 30.7003 31.568 30.1189C32.2926 24.537 29.931 18.9372 25.3957 15.4664C24.7338 14.9655 23.9824 14.4825 23.3651 14.1694L22.9 13.9278L23.2041 13.6684C24.0539 12.9439 25.5567 12.103 26.5855 11.7631C28.1956 11.2443 30.262 11.119 31.9079 11.4589ZM15.4217 15.0013C15.0013 15.9495 14.9834 15.9674 14.6435 16.03C14.4556 16.0658 13.9457 16.1552 13.5164 16.2357C11.9867 16.513 10.4213 17.166 9.02582 18.0874C8.0955 18.6957 6.37801 20.4132 5.76972 21.3346C4.86625 22.7032 4.26691 24.1434 3.91805 25.7714C3.68547 26.827 3.68547 29.4301 3.9091 30.4856C4.44582 32.9456 5.5282 34.9314 7.27254 36.6847C9.50886 38.921 12.2193 40.1018 15.377 40.2271C18.7762 40.3702 21.925 39.1268 24.376 36.6847C27.149 33.9117 28.3835 30.1815 27.802 26.3171C27.4353 23.8482 26.326 21.594 24.5817 19.7781C23.6067 18.7583 22.6674 18.0427 21.4777 17.3986L20.6189 16.9424L21.0125 16.2715C21.6566 15.1981 21.585 15.2428 22.1307 15.5201C23.5709 16.2447 24.8143 17.1839 26.0309 18.4452C30.0831 22.6585 31.0581 29.0096 28.455 34.341C26.5318 38.2949 22.6495 41.211 18.2395 42.0072C16.9871 42.2308 14.6256 42.2308 13.409 42.0072C7.60351 40.9337 3.1398 36.5326 1.98586 30.745C1.69961 29.3138 1.69961 26.9522 1.98586 25.521C2.79988 21.4598 5.18828 18.0785 8.72168 15.9674C10.5823 14.8671 13.1854 14.1068 15.2965 14.0531L15.8511 14.0441L15.4217 15.0013ZM14.2409 18.7583C14.0173 19.9838 13.9457 21.925 14.071 23.1236C14.6345 28.294 17.4255 32.6414 21.8892 35.2892L22.7658 35.8081L22.5153 36.0228C21.9607 36.4879 20.78 37.2304 20.118 37.5256C15.368 39.6903 9.75933 37.9728 7.00418 33.5091C6.46746 32.6325 6.08281 31.7111 5.77867 30.6019C5.57293 29.8326 5.55504 29.5821 5.55504 28.133C5.55504 26.6749 5.57293 26.4423 5.78762 25.6462C6.78949 21.916 9.62515 19.0625 13.2927 18.1143C14.5182 17.8012 14.4288 17.7386 14.2409 18.7583ZM20.5474 18.9283C21.9428 19.6439 23.4904 21.0125 24.367 22.3096C25.6462 24.215 26.2366 26.3439 26.1292 28.625C26.0935 29.4569 25.8609 30.8971 25.7535 31.0223C25.7357 31.0402 25.4494 30.915 25.1184 30.745C21.585 28.947 19.4113 25.2168 19.5634 21.2004C19.6081 20.0912 19.8496 18.6957 20.0017 18.6957C20.0464 18.6957 20.288 18.803 20.5474 18.9283Z" fill="url(#paint0_linear_819_251)"/>
</g>
<defs>
<linearGradient id="paint0_linear_819_251" x1="34.5" y1="44" x2="9.01041e-07" y2="3.5" gradientUnits="userSpaceOnUse">
<stop stop-color="#0F52BA"/>
<stop offset="1" stop-color="#8225AF"/>
</linearGradient>
</defs>
</svg>
