<svg width="16" height="14" viewBox="0 0 16 14" fill="none" xmlns="http://www.w3.org/2000/svg">
<path id="Vector" d="M10.6412 7.2745L10.0352 6.66856C10.1652 5.92717 9.96281 5.30133 9.42809 4.79104C8.89336 4.28075 8.27974 4.0906 7.58722 4.22059L6.98129 3.6184C7.1175 3.55974 7.26177 3.51806 7.4141 3.49336C7.56643 3.46866 7.73124 3.45632 7.90854 3.45632C8.72179 3.45632 9.40693 3.73482 9.96395 4.29184C10.521 4.84886 10.7995 5.53399 10.7995 6.34725C10.7995 6.52454 10.7871 6.69494 10.7624 6.85845C10.7377 7.02196 10.6973 7.16064 10.6412 7.2745ZM13.1453 9.71935L12.5908 9.22698C13.0909 8.8414 13.5445 8.41284 13.9515 7.94133C14.3585 7.46979 14.7032 6.93766 14.9857 6.34491C14.3182 4.98953 13.357 3.91345 12.1022 3.11669C10.8474 2.31994 9.45031 1.92156 7.91087 1.92156C7.52718 1.92156 7.13985 1.95068 6.74888 2.00891C6.35791 2.06715 5.98332 2.15033 5.62511 2.25847L5.03164 1.66499C5.49279 1.49394 5.96799 1.36916 6.45722 1.29067C6.94645 1.21216 7.431 1.1729 7.91087 1.1729C9.63749 1.1729 11.2184 1.64835 12.6536 2.59926C14.0888 3.55016 15.1448 4.79912 15.8217 6.34613C15.5316 6.98064 15.1668 7.58216 14.7272 8.15068C14.2876 8.7192 13.7603 9.24209 13.1453 9.71935ZM14.1123 14L11.0155 10.9047C10.6666 11.069 10.2254 11.2121 9.69188 11.3341C9.15833 11.456 8.56466 11.5169 7.91087 11.5169C6.17588 11.5169 4.59679 11.0415 3.17358 10.0906C1.75038 9.13967 0.692516 7.89222 0 6.34822C0.315066 5.6379 0.730467 4.97249 1.2462 4.352C1.76195 3.73149 2.30837 3.21249 2.88548 2.795L0.648841 0.52406L1.1729 0L14.6488 13.4759L14.1123 14ZM3.42201 3.31906C2.95722 3.64142 2.47787 4.07606 1.98395 4.62299C1.49005 5.16994 1.1074 5.74391 0.836011 6.34491C1.50357 7.7003 2.46474 8.77638 3.71952 9.57314C4.97431 10.3699 6.37143 10.7683 7.91087 10.7683C8.39387 10.7683 8.87958 10.7215 9.36803 10.6279C9.85648 10.5343 10.2161 10.4397 10.447 10.344L9.09572 8.98708C8.97026 9.05883 8.78899 9.11784 8.55191 9.16411C8.31484 9.21038 8.1005 9.23351 7.90888 9.23351C7.1002 9.23351 6.41693 8.95523 5.85907 8.39868C5.30121 7.84211 5.02227 7.15752 5.02227 6.34491C5.02227 6.16639 5.04541 5.96258 5.09168 5.7335C5.13795 5.50442 5.19696 5.31622 5.26871 5.16889L3.42201 3.31906Z" fill="#AEAEAE"/>
</svg>
