<svg width="20" height="20" viewBox="0 0 20 20" fill="none" xmlns="http://www.w3.org/2000/svg">
<g id="qr_code_24dp_5F6368 1" clip-path="url(#clip0_2586_396)">
<g id="Group">
<g id="Group_2">
<path id="Vector" d="M2.5 9.16667H9.16667V2.5H2.5V9.16667ZM4.16667 4.16667H7.5V7.5H4.16667V4.16667Z" fill="#5F6368"/>
<path id="Vector_2" d="M2.5 17.4997H9.16667V10.833H2.5V17.4997ZM4.16667 12.4997H7.5V15.833H4.16667V12.4997Z" fill="#5F6368"/>
<path id="Vector_3" d="M10.8333 2.5V9.16667H17.4999V2.5H10.8333ZM15.8333 7.5H12.4999V4.16667H15.8333V7.5Z" fill="#5F6368"/>
<path id="Vector_4" d="M17.4999 15.833H15.8333V17.4997H17.4999V15.833Z" fill="#5F6368"/>
<path id="Vector_5" d="M12.4999 10.833H10.8333V12.4997H12.4999V10.833Z" fill="#5F6368"/>
<path id="Vector_6" d="M14.1667 12.5H12.5V14.1667H14.1667V12.5Z" fill="#5F6368"/>
<path id="Vector_7" d="M12.4999 14.167H10.8333V15.8337H12.4999V14.167Z" fill="#5F6368"/>
<path id="Vector_8" d="M14.1667 15.833H12.5V17.4997H14.1667V15.833Z" fill="#5F6368"/>
<path id="Vector_9" d="M15.8334 14.167H14.1667V15.8337H15.8334V14.167Z" fill="#5F6368"/>
<path id="Vector_10" d="M15.8334 10.833H14.1667V12.4997H15.8334V10.833Z" fill="#5F6368"/>
<path id="Vector_11" d="M17.4999 12.5H15.8333V14.1667H17.4999V12.5Z" fill="#5F6368"/>
</g>
</g>
</g>
<defs>
<clipPath id="clip0_2586_396">
<rect width="20" height="20" fill="white"/>
</clipPath>
</defs>
</svg>
