<svg width="19" height="14" viewBox="0 0 19 14" fill="none" xmlns="http://www.w3.org/2000/svg">
<path id="Vector" d="M1.41045 14C1.01387 14 0.679653 13.8641 0.407802 13.5922C0.135934 13.3203 0 12.9861 0 12.5896V1.41045C0 1.01387 0.135934 0.679644 0.407802 0.407776C0.679653 0.135925 1.01387 0 1.41045 0H16.7687C17.1652 0 17.4995 0.135925 17.7713 0.407776C18.0432 0.679644 18.1791 1.01387 18.1791 1.41045V12.5896C18.1791 12.9861 18.0432 13.3203 17.7713 13.5922C17.4995 13.8641 17.1652 14 16.7687 14H1.41045ZM9.08955 6.66045L0.574627 0.940299V12.5896C0.574627 12.8333 0.652985 13.0336 0.809701 13.1903C0.966418 13.347 1.16667 13.4254 1.41045 13.4254H16.7687C17.0124 13.4254 17.2127 13.347 17.3694 13.1903C17.5261 13.0336 17.6045 12.8333 17.6045 12.5896V0.940299L9.08955 6.66045ZM9.08955 5.9291L17.1604 0.574627H1.04478L9.08955 5.9291ZM0.574627 0.940299V0.574627V12.5896C0.574627 12.8333 0.652985 13.0336 0.809701 13.1903C0.966418 13.347 1.16667 13.4254 1.41045 13.4254H0.574627V0.940299Z" fill="#AEAEAE"/>
</svg>
