<svg width="149" height="44" viewBox="0 0 149 44" fill="none" xmlns="http://www.w3.org/2000/svg">
<g id="Group">
<path id="Vector" d="M147.515 38.8057C147.515 39.3595 147.406 39.9078 147.193 40.4194C146.981 40.931 146.67 41.3957 146.279 41.7871C145.887 42.1785 145.421 42.4888 144.91 42.7003C144.398 42.9119 143.849 43.0204 143.295 43.0199H5.20461C4.08538 43.021 3.01151 42.5777 2.21917 41.7874C1.42683 40.9972 0.98089 39.9246 0.979431 38.8057V5.19915C0.980889 4.07971 1.42665 3.00661 2.21883 2.21546C3.01102 1.42431 4.08488 0.979783 5.20461 0.979492H143.294C143.848 0.979492 144.397 1.08864 144.909 1.30072C145.421 1.51279 145.886 1.82362 146.278 2.21547C146.67 2.60732 146.981 3.0725 147.193 3.58444C147.405 4.09639 147.514 4.64507 147.514 5.19915L147.515 38.8057Z" fill="white"/>
<path id="Vector_2" d="M143.295 44H5.20471C3.82595 43.9997 2.50361 43.4526 1.52785 42.4788C0.552098 41.5049 0.00262341 40.1839 0 38.8055L0 5.20003C0.00203968 3.82095 0.551152 2.49899 1.52688 1.52414C2.5026 0.549291 3.82526 0.00116399 5.20471 0L143.294 0C144.673 0.0017448 145.996 0.550059 146.971 1.52478C147.947 2.4995 148.496 3.82113 148.499 5.20003V38.8055C148.501 41.6707 146.162 44 143.295 44Z" fill="#A6A6A6"/>
<path id="Vector_3" d="M147.515 38.8057C147.515 39.3595 147.406 39.9078 147.193 40.4194C146.981 40.931 146.67 41.3957 146.279 41.7871C145.887 42.1785 145.421 42.4888 144.91 42.7003C144.398 42.9119 143.849 43.0204 143.295 43.0199H5.20461C4.08538 43.021 3.01151 42.5777 2.21917 41.7874C1.42683 40.9972 0.98089 39.9246 0.979431 38.8057V5.19915C0.980889 4.07971 1.42665 3.00661 2.21883 2.21546C3.01102 1.42431 4.08488 0.979783 5.20461 0.979492H143.294C143.848 0.979492 144.397 1.08864 144.909 1.30072C145.421 1.51279 145.886 1.82362 146.278 2.21547C146.67 2.60732 146.981 3.0725 147.193 3.58444C147.405 4.09639 147.514 4.64507 147.514 5.19915L147.515 38.8057Z" fill="black"/>
<path id="Vector_4" d="M33.1588 21.7686C33.1269 18.2224 36.0633 16.4971 36.1975 16.4168C34.5345 13.9928 31.957 13.6616 31.0512 13.6352C28.8863 13.4074 26.7864 14.9302 25.6836 14.9302C24.5588 14.9302 22.8605 13.6572 21.0303 13.6946C18.675 13.7309 16.4716 15.0942 15.2631 17.2112C12.7692 21.5277 14.6292 27.8709 17.0186 31.36C18.2138 33.0698 19.6105 34.9767 21.4386 34.9095C23.227 34.8369 23.8951 33.7707 26.0534 33.7707C28.1918 33.7707 28.8192 34.9095 30.6836 34.8666C32.603 34.8369 33.8115 33.1502 34.9649 31.426C36.3461 29.4685 36.9008 27.5386 36.9228 27.4396C36.8788 27.4242 33.1962 26.018 33.1588 21.7686ZM29.6369 11.34C30.5988 10.1373 31.257 8.50118 31.0743 6.84082C29.682 6.90244 27.9409 7.80359 26.9382 8.97981C26.0512 10.0163 25.2587 11.7152 25.4634 13.3128C27.0274 13.4294 28.6332 12.5239 29.6369 11.34Z" fill="white"/>
<path id="Vector_5" d="M143.295 0H69.3295L98.3004 44H143.295C144.674 43.9988 145.996 43.451 146.972 42.4766C147.948 41.5023 148.497 40.1809 148.5 38.8022V5.20003C148.497 3.82104 147.948 2.49925 146.972 1.52446C145.997 0.549675 144.674 0.00145451 143.295 0Z" fill="url(#paint0_linear_2039_82)"/>
<g id="Group_2">
<path id="Vector_6" d="M59.0634 34.6643H56.564L55.1948 30.3632H50.4359L49.1317 34.6643H46.6982L51.4143 20.0214H54.3265L59.0634 34.6643ZM54.7821 28.5587L53.5439 24.7351C53.413 24.3445 53.1664 23.4247 52.8054 21.9767H52.7614C52.6161 22.5995 52.3839 23.5193 52.0658 24.7351L50.8486 28.5587H54.7821ZM71.1678 29.2552C71.1678 31.0509 70.6802 32.4703 69.704 33.5123C68.8301 34.4398 67.7438 34.903 66.4484 34.903C65.0495 34.903 64.0436 34.4046 63.4328 33.4055V38.9456H61.0863V27.5761C61.0863 26.4483 61.0566 25.2919 60.9994 24.1058H63.063L63.1939 25.7793H63.238C64.0205 24.5184 65.208 23.8879 66.8017 23.8879C68.0476 23.8879 69.0876 24.3797 69.9197 25.3645C70.7506 26.3515 71.1678 27.6476 71.1678 29.2552ZM68.7773 29.341C68.7773 28.3133 68.5461 27.4661 68.0817 26.7982C67.5743 26.1039 66.893 25.7562 66.039 25.7562C65.4601 25.7562 64.934 25.9499 64.464 26.3317C63.993 26.7168 63.6848 27.2196 63.5406 27.8424C63.4763 28.0753 63.4397 28.315 63.4317 28.5565V30.3181C63.4317 31.085 63.6672 31.7331 64.1383 32.2634C64.6093 32.7916 65.2212 33.0567 65.974 33.0567C66.8578 33.0567 67.5457 32.7145 68.0377 32.0357C68.5307 31.3546 68.7773 30.4567 68.7773 29.341ZM83.315 29.2552C83.315 31.0509 82.8274 32.4703 81.8512 33.5123C80.9762 34.4398 79.8911 34.903 78.5946 34.903C77.1957 34.903 76.1898 34.4046 75.5789 33.4055V38.9456H73.2325V27.5761C73.2325 26.4483 73.2027 25.2919 73.1455 24.1058H75.2091L75.3401 25.7793H75.3841C76.1656 24.5184 77.3531 23.8879 78.9478 23.8879C80.1926 23.8879 81.2327 24.3797 82.0669 25.3645C82.8968 26.3515 83.315 27.6476 83.315 29.2552ZM80.9234 29.341C80.9234 28.3133 80.6912 27.4661 80.2267 26.7982C79.7194 26.1039 79.0403 25.7562 78.1862 25.7562C77.6073 25.7562 77.0812 25.9499 76.6091 26.3317C76.138 26.7168 75.831 27.2196 75.6868 27.8424C75.6152 28.1329 75.5767 28.3694 75.5767 28.5565V30.3181C75.5767 31.085 75.8134 31.7331 76.2822 32.2634C76.7533 32.7905 77.3652 33.0567 78.1202 33.0567C79.0051 33.0567 79.693 32.7145 80.1838 32.0357C80.6769 31.3546 80.9234 30.4567 80.9234 29.341ZM96.8963 30.5568C96.8963 31.8035 96.4605 32.8169 95.5943 33.5992C94.6412 34.453 93.3106 34.881 91.6047 34.881C90.0286 34.881 88.7652 34.5774 87.812 33.9689L88.3546 32.0136C89.3837 32.6232 90.514 32.9269 91.7445 32.9269C92.6293 32.9269 93.3172 32.7266 93.8081 32.3294C94.3 31.9311 94.5488 31.3986 94.5488 30.734C94.5488 30.1387 94.343 29.6403 93.939 29.2343C93.5329 28.8294 92.8616 28.452 91.9183 28.1054C89.354 27.1492 88.0707 25.7507 88.0707 23.911C88.0707 22.7095 88.5241 21.7258 89.4288 20.9567C90.3335 20.1887 91.5331 19.8047 93.0256 19.8047C94.3584 19.8047 95.4689 20.0369 96.3504 20.5001L95.7616 22.4124C94.9318 21.9635 93.9952 21.739 92.9474 21.739C92.1198 21.739 91.4704 21.9426 91.006 22.3475C90.6152 22.7095 90.4171 23.1507 90.4171 23.6745C90.4171 24.2521 90.6428 24.7318 91.0918 25.1081C91.4814 25.4547 92.1924 25.8321 93.2203 26.2371C94.4816 26.7454 95.4083 27.3374 96.0015 28.0173C96.5992 28.6973 96.8963 29.5457 96.8963 30.5568ZM104.674 25.8663H102.088V30.9926C102.088 32.2964 102.543 32.9467 103.457 32.9467C103.876 32.9467 104.224 32.9115 104.499 32.8378L104.564 34.6192C104.102 34.7919 103.493 34.8788 102.739 34.8788C101.813 34.8788 101.089 34.5961 100.566 34.0305C100.045 33.4649 99.7832 32.5176 99.7832 31.184V25.8619H98.2424V24.1014H99.7832V22.1681L102.088 21.4727V24.1014H104.674V25.8663ZM116.321 29.2981C116.321 30.921 115.856 32.2535 114.93 33.2955C113.96 34.3683 112.67 34.903 111.062 34.903C109.51 34.903 108.276 34.3892 107.356 33.3626C106.436 32.3338 105.976 31.0377 105.976 29.4741C105.976 27.838 106.452 26.4978 107.399 25.4558C108.349 24.4128 109.628 23.8912 111.236 23.8912C112.786 23.8912 114.03 24.4062 114.972 25.4338C115.873 26.4307 116.321 27.7181 116.321 29.2981ZM113.888 29.352C113.888 28.3848 113.679 27.5552 113.26 26.8609C112.768 26.0225 112.064 25.6033 111.151 25.6033C110.211 25.6033 109.49 26.0225 109 26.8609C108.579 27.5552 108.37 28.3992 108.37 29.396C108.37 30.3643 108.579 31.1961 109 31.8882C109.507 32.7266 110.215 33.1459 111.131 33.1459C112.028 33.1459 112.732 32.7178 113.24 31.8673C113.672 31.1565 113.888 30.3214 113.888 29.352ZM123.951 26.1688C123.707 26.1248 123.46 26.1031 123.212 26.1039C122.386 26.1039 121.748 26.4142 121.299 27.0392C120.909 27.5893 120.713 28.2847 120.713 29.1243V34.6643H118.367V27.4309C118.369 26.3225 118.346 25.2142 118.298 24.1069H120.342L120.428 26.127H120.493C120.742 25.4327 121.131 24.8727 121.666 24.4535C122.156 24.0872 122.751 23.8888 123.362 23.8879C123.579 23.8879 123.775 23.9033 123.949 23.9308L123.951 26.1688ZM134.445 28.8855C134.451 29.2421 134.423 29.5984 134.359 29.9495H127.32C127.346 30.9926 127.688 31.7914 128.341 32.3415C128.935 32.8323 129.702 33.0787 130.644 33.0787C131.686 33.0787 132.637 32.9137 133.492 32.5803L133.86 34.2077C132.86 34.6434 131.681 34.8601 130.319 34.8601C128.681 34.8601 127.396 34.3782 126.46 33.4165C125.527 32.4538 125.059 31.1598 125.059 29.5391C125.059 27.948 125.494 26.6222 126.365 25.5648C127.276 24.4359 128.508 23.8714 130.057 23.8714C131.579 23.8714 132.732 24.4359 133.514 25.5648C134.134 26.4593 134.445 27.5684 134.445 28.8855ZM132.208 28.277C132.224 27.5805 132.07 26.9809 131.752 26.4736C131.346 25.82 130.721 25.4944 129.883 25.4944C129.116 25.4944 128.491 25.8123 128.016 26.4505C127.625 26.9578 127.393 27.5673 127.321 28.2748L132.208 28.277Z" fill="white"/>
</g>
<g id="Group_3">
<path id="Vector_7" d="M49.7589 14.8439C49.1062 14.8439 48.5416 14.812 48.0717 14.758V7.67869C48.7289 7.57718 49.3932 7.52715 50.0582 7.52905C52.7492 7.52905 53.9884 8.85271 53.9884 11.0104C53.9884 13.4993 52.5247 14.8439 49.7589 14.8439ZM50.1529 8.4368C49.7897 8.4368 49.4804 8.4588 49.224 8.51162V13.8932C49.3626 13.9152 49.629 13.9251 50.0032 13.9251C51.7663 13.9251 52.7701 12.9216 52.7701 11.0423C52.7701 9.36655 51.8621 8.4368 50.1529 8.4368ZM57.8504 14.8978C56.3338 14.8978 55.351 13.7656 55.351 12.2284C55.351 10.6264 56.3547 9.48429 57.9363 9.48429C59.4309 9.48429 60.4357 10.5626 60.4357 12.1437C60.4357 13.7656 59.4001 14.8978 57.8504 14.8978ZM57.8945 10.3271C57.0613 10.3271 56.5275 11.1061 56.5275 12.1954C56.5275 13.2638 57.0723 14.0428 57.8834 14.0428C58.6946 14.0428 59.2394 13.2099 59.2394 12.1734C59.2394 11.1171 58.7056 10.3271 57.8945 10.3271ZM69.0842 9.59102L67.4608 14.78H66.4031L65.7307 12.5266C65.5635 11.9754 65.4243 11.4161 65.3136 10.8509H65.2915C65.2068 11.4164 65.0461 11.9831 64.8755 12.5266L64.1601 14.78H63.0915L61.5638 9.59102H62.7492L63.3369 12.0579C63.4756 12.6455 63.5922 13.2 63.6891 13.7238H63.7111C63.7958 13.2869 63.9345 12.7412 64.1381 12.0689L64.8755 9.59212H65.8154L66.5209 12.0161C66.6915 12.6036 66.8302 13.1802 66.938 13.7249H66.9689C67.0437 13.1912 67.1615 12.6245 67.321 12.0161L67.9517 9.59212L69.0842 9.59102ZM75.0604 14.78H73.907V11.8004C73.907 10.8828 73.5548 10.4228 72.8603 10.4228C72.1769 10.4228 71.7069 11.0104 71.7069 11.6937V14.78H70.5535V11.0742C70.5535 10.6154 70.5425 10.1236 70.5106 9.58992H71.5253L71.5792 10.3909H71.6112C71.9215 9.83638 72.5511 9.48429 73.2565 9.48429C74.3461 9.48429 75.0615 10.3172 75.0615 11.6728L75.0604 14.78ZM78.2411 14.78H77.0866V7.20996H78.2411V14.78ZM82.4465 14.8978C80.931 14.8978 79.9471 13.7656 79.9471 12.2284C79.9471 10.6264 80.9508 9.48429 82.5313 9.48429C84.027 9.48429 85.0307 10.5626 85.0307 12.1437C85.0318 13.7656 83.995 14.8978 82.4465 14.8978ZM82.4894 10.3271C81.6563 10.3271 81.1225 11.1061 81.1225 12.1954C81.1225 13.2638 81.6684 14.0428 82.4773 14.0428C83.2896 14.0428 83.8333 13.2099 83.8333 12.1734C83.8344 11.1171 83.3017 10.3271 82.4894 10.3271ZM89.5784 14.78L89.4947 14.1826H89.4639C89.1117 14.6634 88.5977 14.8978 87.9462 14.8978C87.0162 14.8978 86.3558 14.2464 86.3558 13.3706C86.3558 12.0898 87.4663 11.4274 89.3891 11.4274V11.3317C89.3891 10.6484 89.027 10.3062 88.3116 10.3062C87.7998 10.3062 87.3508 10.4349 86.9556 10.6913L86.7212 9.93321C87.2011 9.63393 87.7998 9.48429 88.5031 9.48429C89.859 9.48429 90.5436 10.1995 90.5436 11.631V13.5422C90.5436 14.0659 90.5667 14.472 90.6184 14.7811L89.5784 14.78ZM89.4199 12.1954C88.1388 12.1954 87.496 12.5057 87.496 13.2418C87.496 13.7865 87.8273 14.0527 88.2874 14.0527C88.874 14.0527 89.4199 13.6049 89.4199 12.9965V12.1954ZM96.1445 14.78L96.0906 13.9471H96.0587C95.7274 14.5765 95.1705 14.8978 94.3924 14.8978C93.141 14.8978 92.2143 13.7975 92.2143 12.2493C92.2143 10.6264 93.1751 9.48319 94.487 9.48319C95.1815 9.48319 95.6734 9.71755 95.9508 10.1885H95.9739V7.20996H97.1284V13.3816C97.1284 13.8833 97.1405 14.3531 97.1714 14.78H96.1445ZM95.9739 11.7267C95.9739 11.0005 95.493 10.381 94.7589 10.381C93.9037 10.381 93.3809 11.1391 93.3809 12.2064C93.3809 13.2528 93.9235 13.9691 94.7357 13.9691C95.461 13.9691 95.9739 13.3386 95.9739 12.5915V11.7267ZM104.448 14.8978C102.933 14.8978 101.95 13.7656 101.95 12.2284C101.95 10.6264 102.954 9.48429 104.534 9.48429C106.03 9.48429 107.034 10.5626 107.034 12.1437C107.035 13.7656 105.999 14.8978 104.448 14.8978ZM104.491 10.3271C103.659 10.3271 103.126 11.1061 103.126 12.1954C103.126 13.2638 103.67 14.0428 104.48 14.0428C105.293 14.0428 105.836 13.2099 105.836 12.1734C105.839 11.1171 105.305 10.3271 104.491 10.3271ZM113.237 14.78H112.082V11.8004C112.082 10.8828 111.73 10.4228 111.036 10.4228C110.352 10.4228 109.883 11.0104 109.883 11.6937V14.78H108.729V11.0742C108.729 10.6154 108.718 10.1236 108.686 9.58992H109.701L109.754 10.3909H109.786C110.096 9.83638 110.726 9.48319 111.431 9.48319C112.52 9.48319 113.237 10.3161 113.237 11.6717V14.78ZM120.997 10.4559H119.728V12.9755C119.728 13.617 119.95 13.9372 120.399 13.9372C120.603 13.9372 120.774 13.9152 120.911 13.8833L120.943 14.7591C120.72 14.845 120.42 14.8879 120.048 14.8879C119.139 14.8879 118.596 14.3861 118.596 13.0724V10.4559H117.838V9.59102H118.596V8.64035L119.728 8.29816V9.58992H120.997V10.4559ZM127.103 14.78H125.951V11.8224C125.951 10.8938 125.6 10.4239 124.904 10.4239C124.307 10.4239 123.75 10.83 123.75 11.6519V14.78H122.597V7.20996H123.75V10.3271H123.773C124.136 9.76156 124.662 9.48319 125.333 9.48319C126.432 9.48319 127.103 10.337 127.103 11.6937V14.78ZM133.359 12.4628H129.898C129.92 13.4454 130.57 13.9999 131.533 13.9999C132.045 13.9999 132.516 13.9141 132.932 13.7546L133.111 14.5556C132.62 14.769 132.043 14.8758 131.37 14.8758C129.747 14.8758 128.786 13.8503 128.786 12.2603C128.786 10.6693 129.77 9.47328 131.24 9.47328C132.566 9.47328 133.399 10.4559 133.399 11.9402C133.406 12.1153 133.393 12.2908 133.359 12.4628ZM132.301 11.6409C132.301 10.8399 131.897 10.2743 131.16 10.2743C130.497 10.2743 129.973 10.8509 129.899 11.6409H132.301Z" fill="white"/>
</g>
</g>
<defs>
<linearGradient id="paint0_linear_2039_82" x1="108.913" y1="44.1168" x2="108.913" y2="-114.568" gradientUnits="userSpaceOnUse">
<stop stop-color="#1A1A1A" stop-opacity="0.1"/>
<stop offset="0.123" stop-color="#212121" stop-opacity="0.151"/>
<stop offset="0.308" stop-color="#353535" stop-opacity="0.227"/>
<stop offset="0.532" stop-color="#575757" stop-opacity="0.318"/>
<stop offset="0.783" stop-color="#858585" stop-opacity="0.421"/>
<stop offset="1" stop-color="#B3B3B3" stop-opacity="0.51"/>
</linearGradient>
</defs>
</svg>
