<svg width="149" height="44" viewBox="0 0 149 44" fill="none" xmlns="http://www.w3.org/2000/svg">
<g id="Group 1753">
<path id="Vector" d="M143 44H5.5C2.42 44 0 41.58 0 38.5V5.5C0 2.42 2.42 0 5.5 0H143C146.08 0 148.5 2.42 148.5 5.5V38.5C148.5 41.58 146.08 44 143 44Z" fill="black"/>
<path id="Vector_2" d="M143 0.88C145.53 0.88 147.62 2.97 147.62 5.5V38.5C147.62 41.03 145.53 43.12 143 43.12H5.5C2.97 43.12 0.88 41.03 0.88 38.5V5.5C0.88 2.97 2.97 0.88 5.5 0.88H143ZM143 0H5.5C2.42 0 0 2.53 0 5.5V38.5C0 41.58 2.42 44 5.5 44H143C146.08 44 148.5 41.58 148.5 38.5V5.5C148.5 2.53 146.08 0 143 0Z" fill="#A6A6A6"/>
<path id="Vector_3" d="M52.1399 11.2198C52.1399 12.0998 51.9199 12.8698 51.3699 13.4198C50.7099 14.0798 49.9399 14.4098 48.9499 14.4098C47.9599 14.4098 47.1899 14.0798 46.5299 13.4198C45.8699 12.7598 45.5399 11.9898 45.5399 10.9998C45.5399 10.0098 45.8699 9.23984 46.5299 8.57984C47.1899 7.91984 47.9599 7.58984 48.9499 7.58984C49.3899 7.58984 49.8299 7.69984 50.2699 7.91984C50.7099 8.13984 51.0399 8.35984 51.2599 8.68984L50.7099 9.23984C50.2699 8.68984 49.7199 8.46984 48.9499 8.46984C48.2899 8.46984 47.6299 8.68984 47.1899 9.23984C46.6399 9.67984 46.4199 10.3398 46.4199 11.1098C46.4199 11.8798 46.6399 12.5398 47.1899 12.9798C47.7399 13.4198 48.2899 13.7498 48.9499 13.7498C49.7199 13.7498 50.2699 13.5298 50.8199 12.9798C51.1499 12.6498 51.3699 12.2098 51.3699 11.6598H48.9499V10.7798H52.1399V11.2198ZM57.1999 8.46984H54.2299V10.5598H56.9799V11.3298H54.2299V13.4198H57.1999V14.2998H53.3499V7.69984H57.1999V8.46984ZM60.8299 14.2998H59.9499V8.46984H58.0799V7.69984H62.6999V8.46984H60.8299V14.2998ZM65.8899 14.2998V7.69984H66.7699V14.2998H65.8899ZM70.5099 14.2998H69.6299V8.46984H67.7599V7.69984H72.2699V8.46984H70.3999V14.2998H70.5099ZM80.9599 13.4198C80.2999 14.0798 79.5299 14.4098 78.5399 14.4098C77.5499 14.4098 76.7799 14.0798 76.1199 13.4198C75.4599 12.7598 75.1299 11.9898 75.1299 10.9998C75.1299 10.0098 75.4599 9.23984 76.1199 8.57984C76.7799 7.91984 77.5499 7.58984 78.5399 7.58984C79.5299 7.58984 80.2999 7.91984 80.9599 8.57984C81.6199 9.23984 81.9499 10.0098 81.9499 10.9998C81.9499 11.9898 81.6199 12.7598 80.9599 13.4198ZM76.7799 12.8698C77.2199 13.3098 77.8799 13.6398 78.5399 13.6398C79.1999 13.6398 79.8599 13.4198 80.2999 12.8698C80.7399 12.4298 81.0699 11.7698 81.0699 10.9998C81.0699 10.2298 80.8499 9.56984 80.2999 9.12984C79.8599 8.68984 79.1999 8.35984 78.5399 8.35984C77.8799 8.35984 77.2199 8.57984 76.7799 9.12984C76.34 9.56984 76.0099 10.2298 76.0099 10.9998C76.0099 11.7698 76.2299 12.4298 76.7799 12.8698ZM83.1599 14.2998V7.69984H84.1499L87.3399 12.8698V7.69984H88.2199V14.2998H87.3399L83.93 8.90984V14.2998H83.1599Z" fill="white"/>
<path id="Vector_4" d="M74.9101 23.9796C72.2701 23.9796 70.1801 25.9596 70.1801 28.7096C70.1801 31.3496 72.2701 33.4396 74.9101 33.4396C77.5501 33.4396 79.6401 31.4596 79.6401 28.7096C79.6401 25.8496 77.5501 23.9796 74.9101 23.9796ZM74.9101 31.4596C73.4801 31.4596 72.2701 30.2496 72.2701 28.5996C72.2701 26.9496 73.4801 25.7396 74.9101 25.7396C76.3401 25.7396 77.5501 26.8396 77.5501 28.5996C77.5501 30.2496 76.3401 31.4596 74.9101 31.4596ZM64.6801 23.9796C62.0401 23.9796 59.9501 25.9596 59.9501 28.7096C59.9501 31.3496 62.0401 33.4396 64.6801 33.4396C67.3201 33.4396 69.4101 31.4596 69.4101 28.7096C69.4101 25.8496 67.3201 23.9796 64.6801 23.9796ZM64.6801 31.4596C63.2501 31.4596 62.0401 30.2496 62.0401 28.5996C62.0401 26.9496 63.2501 25.7396 64.6801 25.7396C66.1101 25.7396 67.3201 26.8396 67.3201 28.5996C67.3201 30.2496 66.1101 31.4596 64.6801 31.4596ZM52.4701 25.4096V27.3896H57.2001C57.0901 28.4896 56.6501 29.3696 56.1001 29.9196C55.4401 30.5796 54.3401 31.3496 52.4701 31.3496C49.5001 31.3496 47.3001 29.0396 47.3001 26.0696C47.3001 23.0996 49.6101 20.7896 52.4701 20.7896C54.0101 20.7896 55.2201 21.4496 56.1001 22.2196L57.5301 20.7896C56.3201 19.6896 54.7801 18.8096 52.5801 18.8096C48.6201 18.8096 45.2101 22.1096 45.2101 26.0696C45.2101 30.0296 48.6201 33.3296 52.5801 33.3296C54.7801 33.3296 56.3201 32.6696 57.6401 31.2396C58.9601 29.9196 59.4001 28.0496 59.4001 26.6196C59.4001 26.1796 59.4001 25.7396 59.2901 25.4096H52.4701ZM102.41 26.9496C101.97 25.8496 100.87 23.9796 98.4501 23.9796C96.0301 23.9796 94.0501 25.8496 94.0501 28.7096C94.0501 31.3496 96.0301 33.4396 98.6701 33.4396C100.76 33.4396 102.08 32.1196 102.52 31.3496L100.98 30.2496C100.43 31.0196 99.7701 31.5696 98.6701 31.5696C97.5701 31.5696 96.9101 31.1296 96.3601 30.1396L102.63 27.4996L102.41 26.9496ZM96.0301 28.4896C96.0301 26.7296 97.4601 25.7396 98.4501 25.7396C99.2201 25.7396 99.9901 26.1796 100.21 26.7296L96.0301 28.4896ZM90.8601 32.9996H92.9501V19.2496H90.8601V32.9996ZM87.5601 24.9696C87.0101 24.4196 86.1301 23.8696 85.0301 23.8696C82.7201 23.8696 80.5201 25.9596 80.5201 28.5996C80.5201 31.2396 82.6101 33.2196 85.0301 33.2196C86.1301 33.2196 87.0101 32.6696 87.4501 32.1196H87.5601V32.7796C87.5601 34.5396 86.5701 35.5296 85.0301 35.5296C83.8201 35.5296 82.9401 34.6496 82.7201 33.8796L80.9601 34.6496C81.5101 35.8596 82.8301 37.3996 85.1401 37.3996C87.5601 37.3996 89.5401 35.9696 89.5401 32.5596V24.1996H87.5601V24.9696ZM85.1401 31.4596C83.7101 31.4596 82.5001 30.2496 82.5001 28.5996C82.5001 26.9496 83.7101 25.7396 85.1401 25.7396C86.5701 25.7396 87.6701 26.9496 87.6701 28.5996C87.6701 30.2496 86.5701 31.4596 85.1401 31.4596ZM111.98 19.2496H107.03V32.9996H109.12V27.8296H111.98C114.29 27.8296 116.49 26.1796 116.49 23.5396C116.49 20.8996 114.29 19.2496 111.98 19.2496ZM112.09 25.8496H109.12V21.1196H112.09C113.63 21.1196 114.51 22.4396 114.51 23.4296C114.4 24.6396 113.52 25.8496 112.09 25.8496ZM124.74 23.8696C123.2 23.8696 121.66 24.5296 121.11 25.9596L122.98 26.7296C123.42 25.9596 124.08 25.7396 124.85 25.7396C125.95 25.7396 126.94 26.3996 127.05 27.4996V27.6096C126.72 27.3896 125.84 27.0596 124.96 27.0596C122.98 27.0596 121 28.1596 121 30.1396C121 32.0096 122.65 33.2196 124.41 33.2196C125.84 33.2196 126.5 32.5596 127.05 31.8996H127.16V32.9996H129.14V27.7196C128.92 25.2996 127.05 23.8696 124.74 23.8696ZM124.52 31.4596C123.86 31.4596 122.87 31.1296 122.87 30.2496C122.87 29.1496 124.08 28.8196 125.07 28.8196C125.95 28.8196 126.39 29.0396 126.94 29.2596C126.72 30.5796 125.62 31.4596 124.52 31.4596ZM136.07 24.1996L133.76 30.1396H133.65L131.23 24.1996H129.03L132.66 32.5596L130.57 37.1796H132.66L138.27 24.1996H136.07ZM117.59 32.9996H119.68V19.2496H117.59V32.9996Z" fill="white"/>
<g id="Group">
<path id="Vector_5" d="M11.4396 8.25C11.1096 8.58 10.9996 9.13 10.9996 9.79V34.1C10.9996 34.76 11.2196 35.31 11.5496 35.64L11.6596 35.75L25.2996 22.11V21.89L11.4396 8.25Z" fill="url(#paint0_linear_2039_69)"/>
<path id="Vector_6" d="M29.7001 26.7309L25.1901 22.2209V21.8909L29.7001 17.3809L29.8101 17.4909L35.2001 20.5709C36.7401 21.4509 36.7401 22.8809 35.2001 23.7609L29.7001 26.7309Z" fill="url(#paint1_linear_2039_69)"/>
<path id="Vector_7" d="M29.81 26.62L25.19 22L11.44 35.75C11.99 36.3 12.76 36.3 13.75 35.86L29.81 26.62Z" fill="url(#paint2_linear_2039_69)"/>
<path id="Vector_8" d="M29.81 17.3803L13.75 8.25027C12.76 7.70027 11.99 7.81027 11.44 8.36027L25.19 22.0003L29.81 17.3803Z" fill="url(#paint3_linear_2039_69)"/>
<path id="Vector_9" opacity="0.2" d="M29.7 26.5107L13.75 35.5307C12.87 36.0807 12.1 35.9707 11.55 35.5307L11.44 35.6407L11.55 35.7507C12.1 36.1907 12.87 36.3007 13.75 35.7507L29.7 26.5107Z" fill="black"/>
<path id="Vector_10" opacity="0.12" d="M11.4396 35.53C11.1096 35.2 10.9996 34.65 10.9996 33.99V34.1C10.9996 34.76 11.2196 35.31 11.5496 35.64V35.53H11.4396ZM35.1996 23.43L29.6996 26.51L29.8096 26.62L35.1996 23.54C35.9696 23.1 36.2996 22.55 36.2996 22C36.2996 22.55 35.8596 22.99 35.1996 23.43Z" fill="black"/>
<path id="Vector_11" opacity="0.25" d="M13.7497 8.36039L35.1997 20.5704C35.8597 21.0104 36.2997 21.4504 36.2997 22.0004C36.2997 21.4504 35.9697 20.9004 35.1997 20.4604L13.7497 8.2504C12.2097 7.3704 10.9997 8.03039 10.9997 9.79039V9.9004C10.9997 8.2504 12.2097 7.48039 13.7497 8.36039Z" fill="white"/>
</g>
</g>
<defs>
<linearGradient id="paint0_linear_2039_69" x1="23.9796" y1="9.581" x2="5.51833" y2="28.0412" gradientUnits="userSpaceOnUse">
<stop stop-color="#00A0FF"/>
<stop offset="0.007" stop-color="#00A1FF"/>
<stop offset="0.26" stop-color="#00BEFF"/>
<stop offset="0.512" stop-color="#00D2FF"/>
<stop offset="0.76" stop-color="#00DFFF"/>
<stop offset="1" stop-color="#00E3FF"/>
</linearGradient>
<linearGradient id="paint1_linear_2039_69" x1="37.2175" y1="22.002" x2="10.6008" y2="22.002" gradientUnits="userSpaceOnUse">
<stop stop-color="#FFE000"/>
<stop offset="0.409" stop-color="#FFBD00"/>
<stop offset="0.775" stop-color="#FFA500"/>
<stop offset="1" stop-color="#FF9C00"/>
</linearGradient>
<linearGradient id="paint2_linear_2039_69" x1="27.3097" y1="24.5256" x2="2.27591" y2="49.5594" gradientUnits="userSpaceOnUse">
<stop stop-color="#FF3A44"/>
<stop offset="1" stop-color="#C31162"/>
</linearGradient>
<linearGradient id="paint3_linear_2039_69" x1="8.0267" y1="0.19387" x2="19.206" y2="11.3732" gradientUnits="userSpaceOnUse">
<stop stop-color="#32A071"/>
<stop offset="0.069" stop-color="#2DA771"/>
<stop offset="0.476" stop-color="#15CF74"/>
<stop offset="0.801" stop-color="#06E775"/>
<stop offset="1" stop-color="#00F076"/>
</linearGradient>
</defs>
</svg>
