<svg width="25" height="24" viewBox="0 0 25 24" fill="none" xmlns="http://www.w3.org/2000/svg">
<path id="Vector" d="M12 24C10.3436 24 8.78544 23.6842 7.32567 23.0527C5.86589 22.4209 4.59578 21.5649 3.51533 20.4847C2.43511 19.4042 1.57911 18.1341 0.947333 16.6743C0.315778 15.2146 0 13.6564 0 12C0 10.3436 0.315778 8.78545 0.947333 7.32567C1.57911 5.86589 2.43511 4.59578 3.51533 3.51533C4.59578 2.43511 5.86589 1.57911 7.32567 0.947333C8.78544 0.315777 10.3436 0 12 0C15.1078 0 17.7886 1.02522 20.0423 3.07567C22.2961 5.12611 23.5862 7.659 23.9127 10.6743H22.564C22.3298 8.74433 21.6328 7.01233 20.473 5.47833C19.3132 3.94411 17.8222 2.812 16 2.082V2.66667C16 3.4 15.7389 4.02778 15.2167 4.55C14.6944 5.07222 14.0667 5.33333 13.3333 5.33333H10.6667V8C10.6667 8.37778 10.5389 8.69444 10.2833 8.95C10.0278 9.20556 9.71111 9.33333 9.33333 9.33333H6.66667V12H9.12833V16H8L1.6 9.6C1.53333 10 1.47222 10.4 1.41667 10.8C1.36111 11.2 1.33333 11.6 1.33333 12C1.33333 14.9111 2.35556 17.4111 4.4 19.5C6.44444 21.5889 8.97778 22.6444 12 22.6667V24ZM24.0307 23.641L19.4307 19.0923C19.0324 19.3761 18.6009 19.5983 18.136 19.759C17.6709 19.9197 17.1811 20 16.6667 20C15.3589 20 14.2542 19.5491 13.3527 18.6473C12.4509 17.7458 12 16.6411 12 15.3333C12 14.0256 12.4509 12.9209 13.3527 12.0193C14.2542 11.1176 15.3589 10.6667 16.6667 10.6667C17.9744 10.6667 19.0791 11.1176 19.9807 12.0193C20.8824 12.9209 21.3333 14.0256 21.3333 15.3333C21.3333 15.8649 21.2487 16.3674 21.0793 16.841C20.9102 17.3146 20.6752 17.7504 20.3743 18.1487L24.9743 22.6973L24.0307 23.641ZM16.6667 18.6667C17.6 18.6667 18.3889 18.3444 19.0333 17.7C19.6778 17.0556 20 16.2667 20 15.3333C20 14.4 19.6778 13.6111 19.0333 12.9667C18.3889 12.3222 17.6 12 16.6667 12C15.7333 12 14.9444 12.3222 14.3 12.9667C13.6556 13.6111 13.3333 14.4 13.3333 15.3333C13.3333 16.2667 13.6556 17.0556 14.3 17.7C14.9444 18.3444 15.7333 18.6667 16.6667 18.6667Z" fill="#5F6368"/>
</svg>
