<svg width="32" height="32" viewBox="0 0 32 32" fill="none" xmlns="http://www.w3.org/2000/svg">
<g id="sentiment_very_satisfied_24dp_5F6368 1" clip-path="url(#clip0_2028_1396)">
<path id="Vector" d="M15.9867 2.66699C8.62666 2.66699 2.66666 8.62699 2.66666 16.0003C2.66666 23.3737 8.62666 29.3337 15.9867 29.3337C23.3467 29.3337 29.3333 23.3737 29.3333 16.0003C29.3333 8.62699 23.36 2.66699 15.9867 2.66699ZM16 26.667C10.1067 26.667 5.33332 21.8937 5.33332 16.0003C5.33332 10.107 10.1067 5.33366 16 5.33366C21.8933 5.33366 26.6667 10.107 26.6667 16.0003C26.6667 21.8937 21.8933 26.667 16 26.667ZM17.3333 13.2537L18.7467 14.667L20.16 13.2537L21.5733 14.667L22.9867 13.2537L20.16 10.427L17.3333 13.2537ZM11.84 13.2537L13.2533 14.667L14.6667 13.2537L11.84 10.427L9.01332 13.2537L10.4267 14.667L11.84 13.2537ZM16 23.3337C19.1067 23.3337 21.7467 21.387 22.8133 18.667H9.18666C10.2533 21.387 12.8933 23.3337 16 23.3337Z" fill="#5F6368"/>
</g>
<defs>
<clipPath id="clip0_2028_1396">
<rect width="32" height="32" fill="white"/>
</clipPath>
</defs>
</svg>
