<svg width="34" height="38" viewBox="0 0 34 38" fill="none" xmlns="http://www.w3.org/2000/svg">
<path id="Vector" d="M16.8161 27.8994C18.454 27.8994 19.9009 27.3807 21.1566 26.3434C22.4124 25.306 23.1858 23.9684 23.477 22.3305H10.1006C10.3918 23.9684 11.1743 25.306 12.4483 26.3434C13.7222 27.3807 15.1782 27.8994 16.8161 27.8994ZM7.53448 13.2126H14.0862C14.0862 12.3027 13.7586 11.5201 13.1034 10.8649C12.4483 10.2098 11.6657 9.88218 10.7557 9.88218C9.84579 9.88218 9.08142 10.2098 8.46264 10.8649C7.84387 11.5201 7.53448 12.3027 7.53448 13.2126ZM19.546 13.158H26.0977C26.0977 12.2481 25.7792 11.4746 25.1422 10.8376C24.5053 10.2007 23.7318 9.88218 22.8218 9.88218C21.9119 9.88218 21.1384 10.2007 20.5014 10.8376C19.8645 11.4746 19.546 12.2481 19.546 13.158ZM16.8161 38C14.4866 38 12.3027 37.5541 10.2644 36.6624C8.22605 35.7706 6.44253 34.5603 4.91379 33.0316C3.38506 31.5029 2.18391 29.7011 1.31034 27.6264C0.436782 25.5517 0 23.3496 0 21.0201V0H33.6322V21.0201C33.6322 23.3496 33.1954 25.5517 32.3218 27.6264C31.4483 29.7011 30.2471 31.5029 28.7184 33.0316C27.1897 34.5603 25.4061 35.7706 23.3678 36.6624C21.3295 37.5541 19.1456 38 16.8161 38ZM16.8161 36.4713C21.0383 36.4713 24.6418 34.9698 27.6264 31.967C30.6111 28.9641 32.1035 25.3151 32.1035 21.0201V1.52874H1.52874V21.0201C1.52874 25.3151 3.01197 28.9641 5.97845 31.967C8.94492 34.9698 12.5575 36.4713 16.8161 36.4713Z" fill="white"/>
</svg>
