<svg width="34" height="38" viewBox="0 0 34 38" fill="none" xmlns="http://www.w3.org/2000/svg">
<path id="Vector" d="M25.6994 29.8728C26.6146 29.8728 27.3926 29.5525 28.0332 28.9118C28.6739 28.2712 28.9942 27.4933 28.9942 26.578C28.9942 25.6628 28.6739 24.8849 28.0332 24.2442C27.3926 23.6036 26.6146 23.2832 25.6994 23.2832C24.7842 23.2832 24.0063 23.6036 23.3656 24.2442C22.7249 24.8849 22.4046 25.6628 22.4046 26.578C22.4046 27.4933 22.7249 28.2712 23.3656 28.9118C24.0063 29.5525 24.7842 29.8728 25.6994 29.8728ZM25.6994 36.4624C26.8709 36.4624 27.9234 36.2062 28.8569 35.6936C29.7905 35.1811 30.5684 34.4855 31.1907 33.6069C30.3487 33.0944 29.4701 32.71 28.5549 32.4538C27.6397 32.1975 26.6879 32.0694 25.6994 32.0694C24.711 32.0694 23.7591 32.1975 22.8439 32.4538C21.9287 32.71 21.0501 33.0944 20.2081 33.6069C20.8304 34.4855 21.6084 35.1811 22.5419 35.6936C23.4754 36.2062 24.5279 36.4624 25.6994 36.4624ZM14.7168 37.8902C10.5067 36.5723 7.00144 33.973 4.20087 30.0925C1.40029 26.2119 0 21.8189 0 16.9133V5.49133L14.7168 0L29.4335 5.49133V17.9017C29.2139 17.8285 28.9576 17.7645 28.6647 17.7095C28.3719 17.6546 28.1156 17.5906 27.896 17.5173V6.53468L14.7168 1.6474L1.53757 6.53468V16.9133C1.53757 19.2197 1.88536 21.407 2.58092 23.4754C3.27649 25.5438 4.21917 27.4292 5.40896 29.1315C6.59875 30.8338 7.99904 32.2982 9.60983 33.5246C11.2206 34.751 12.9229 35.657 14.7168 36.2428L14.8815 36.1879C14.9913 36.4075 15.1195 36.6272 15.2659 36.8468C15.4123 37.0665 15.5771 37.2861 15.7601 37.5058C15.5771 37.579 15.4032 37.6431 15.2384 37.698C15.0737 37.7529 14.8998 37.817 14.7168 37.8902ZM25.6994 38C23.4297 38 21.5077 37.2129 19.9335 35.6387C18.3593 34.0645 17.5723 32.1426 17.5723 29.8728C17.5723 27.6031 18.3593 25.6811 19.9335 24.1069C21.5077 22.5328 23.4297 21.7457 25.6994 21.7457C27.9692 21.7457 29.8911 22.5328 31.4653 24.1069C33.0395 25.6811 33.8266 27.6031 33.8266 29.8728C33.8266 32.1426 33.0395 34.0645 31.4653 35.6387C29.8911 37.2129 27.9692 38 25.6994 38Z" fill="white"/>
</svg>
