<svg width="30" height="38" viewBox="0 0 30 38" fill="none" xmlns="http://www.w3.org/2000/svg">
<path id="Vector" d="M12.8319 24.1217H16.687L15.4754 17.4029C16.0995 17.2193 16.6227 16.8614 17.0449 16.329C17.4672 15.7966 17.6783 15.2 17.6783 14.5391C17.6783 13.7314 17.3937 13.043 16.8246 12.4739C16.2556 11.9048 15.5672 11.6203 14.7594 11.6203C13.9517 11.6203 13.2633 11.9048 12.6942 12.4739C12.1251 13.043 11.8406 13.7314 11.8406 14.5391C11.8406 15.2 12.0517 15.7966 12.4739 16.329C12.8961 16.8614 13.4193 17.2193 14.0435 17.4029L12.8319 24.1217ZM14.7594 38C10.5372 36.6783 7.02174 34.0715 4.21304 30.1797C1.40435 26.2879 0 21.8821 0 16.9623V5.50725L14.7594 0L29.5188 5.50725V16.9623C29.5188 21.8821 28.1145 26.2879 25.3058 30.1797C22.4971 34.0715 18.9816 36.6783 14.7594 38ZM14.7594 36.3478C18.5778 35.1362 21.7353 32.713 24.2319 29.0783C26.7285 25.4435 27.9768 21.4048 27.9768 16.9623V6.55362L14.7594 1.65217L1.54203 6.55362V16.9623C1.54203 21.4048 2.79034 25.4435 5.28696 29.0783C7.78358 32.713 10.9411 35.1362 14.7594 36.3478Z" fill="white"/>
</svg>
