<svg width="30" height="38" viewBox="0 0 30 38" fill="none" xmlns="http://www.w3.org/2000/svg">
<path id="Vector" d="M12.4464 24.7826L22.9101 14.3188L21.8087 13.2174L12.4464 22.5797L7.71015 17.8435L6.6087 18.9449L12.4464 24.7826ZM14.7594 38C10.5372 36.6783 7.02174 34.0715 4.21304 30.1797C1.40435 26.2879 0 21.8821 0 16.9623V5.50725L14.7594 0L29.5188 5.50725V16.9623C29.5188 21.8821 28.1145 26.2879 25.3058 30.1797C22.4971 34.0715 18.9816 36.6783 14.7594 38ZM14.7594 36.3478C18.5778 35.1362 21.7353 32.713 24.2319 29.0783C26.7285 25.4435 27.9768 21.4048 27.9768 16.9623V6.55362L14.7594 1.65217L1.54203 6.55362V16.9623C1.54203 21.4048 2.79034 25.4435 5.28696 29.0783C7.78358 32.713 10.9411 35.1362 14.7594 36.3478Z" fill="white"/>
</svg>
