<svg width="32" height="32" viewBox="0 0 32 32" fill="none" xmlns="http://www.w3.org/2000/svg">
<g id="mic_none_24dp_5F6368 1" clip-path="url(#clip0_2028_1408)">
<path id="Vector" d="M16 18.667C18.2134 18.667 20 16.8803 20 14.667V6.66699C20 4.45366 18.2134 2.66699 16 2.66699C13.7867 2.66699 12 4.45366 12 6.66699V14.667C12 16.8803 13.7867 18.667 16 18.667ZM14.6667 6.66699C14.6667 5.93366 15.2667 5.33366 16 5.33366C16.7334 5.33366 17.3334 5.93366 17.3334 6.66699V14.667C17.3334 15.4003 16.7334 16.0003 16 16.0003C15.2667 16.0003 14.6667 15.4003 14.6667 14.667V6.66699ZM22.6667 14.667C22.6667 18.347 19.68 21.3337 16 21.3337C12.32 21.3337 9.33335 18.347 9.33335 14.667H6.66669C6.66669 19.3737 10.1467 23.2403 14.6667 23.8937V28.0003H17.3334V23.8937C21.8534 23.2403 25.3334 19.3737 25.3334 14.667H22.6667Z" fill="#5F6368"/>
</g>
<defs>
<clipPath id="clip0_2028_1408">
<rect width="32" height="32" fill="white"/>
</clipPath>
</defs>
</svg>
