<svg width="32" height="32" viewBox="0 0 32 32" fill="none" xmlns="http://www.w3.org/2000/svg">
<g id="video_call_24dp_5F6368 1" clip-path="url(#clip0_2028_1411)">
<path id="Vector" d="M22.6667 14V9.33333C22.6667 8.6 22.0667 8 21.3333 8H5.33333C4.6 8 4 8.6 4 9.33333V22.6667C4 23.4 4.6 24 5.33333 24H21.3333C22.0667 24 22.6667 23.4 22.6667 22.6667V18L28 23.3333V8.66667L22.6667 14ZM20 21.3333H6.66667V10.6667H20V21.3333ZM12 20H14.6667V17.3333H17.3333V14.6667H14.6667V12H12V14.6667H9.33333V17.3333H12V20Z" fill="#5F6368"/>
</g>
<defs>
<clipPath id="clip0_2028_1411">
<rect width="32" height="32" fill="white"/>
</clipPath>
</defs>
</svg>
