<svg width="26" height="34" viewBox="0 0 26 34" fill="none" xmlns="http://www.w3.org/2000/svg">
<path id="Vector" d="M0 29.2514V27.9218H2.84916V12.3464C2.84916 9.90875 3.63268 7.77188 5.19972 5.93575C6.76676 4.09963 8.73743 2.97579 11.1117 2.56425V1.61453C11.1117 1.16594 11.2681 0.784785 11.5809 0.471061C11.8937 0.15702 12.2736 0 12.7206 0C13.1676 0 13.5493 0.15702 13.8659 0.471061C14.1825 0.784785 14.3408 1.16594 14.3408 1.61453V2.56425C16.7151 2.97579 18.6858 4.09963 20.2528 5.93575C21.8198 7.77188 22.6034 9.90875 22.6034 12.3464V27.9218H25.4525V29.2514H0ZM12.7177 34C11.932 34 11.2621 33.7209 10.7081 33.1628C10.1541 32.605 9.8771 31.9344 9.8771 31.1508H15.5754C15.5754 31.9423 15.2956 32.615 14.7359 33.169C14.1765 33.723 13.5038 34 12.7177 34ZM4.17877 27.9218H21.2737V12.3464C21.2737 9.97207 20.4427 7.95391 18.7807 6.2919C17.1187 4.62989 15.1006 3.79888 12.7263 3.79888C10.352 3.79888 8.3338 4.62989 6.67179 6.2919C5.00978 7.95391 4.17877 9.97207 4.17877 12.3464V27.9218Z" fill="#5F6368"/>
</svg>
