<svg width="37" height="34" viewBox="0 0 37 34" fill="none" xmlns="http://www.w3.org/2000/svg">
<path d="M0 34V3.14815C0 2.23868 0.297325 1.48663 0.891975 0.891975C1.48663 0.297325 2.23868 0 3.14815 0H33.3704C34.2798 0 35.0319 0.297325 35.6265 0.891975C36.2212 1.48663 36.5185 2.23868 36.5185 3.14815V24.9753C36.5185 25.8848 36.2212 26.6368 35.6265 27.2315C35.0319 27.8261 34.2798 28.1235 33.3704 28.1235H5.87654L0 34ZM5.24691 26.6543H33.3704C33.7901 26.6543 34.1749 26.4794 34.5247 26.1296C34.8745 25.7798 35.0494 25.3951 35.0494 24.9753V3.14815C35.0494 2.72839 34.8745 2.34362 34.5247 1.99383C34.1749 1.64403 33.7901 1.46914 33.3704 1.46914H3.14815C2.72839 1.46914 2.34362 1.64403 1.99383 1.99383C1.64403 2.34362 1.46914 2.72839 1.46914 3.14815V30.4321L5.24691 26.6543Z" fill="#8225AF"/>
</svg>
