<svg width="39" height="34" viewBox="0 0 39 34" fill="none" xmlns="http://www.w3.org/2000/svg">
<path id="Vector" d="M19.3333 34L18.1111 32.8889C14.5185 29.5926 11.5463 26.7778 9.19444 24.4444C6.84259 22.1111 4.99074 20.0648 3.63889 18.3056C2.28704 16.5463 1.34259 14.963 0.805556 13.5556C0.268518 12.1481 0 10.7407 0 9.33333C0 6.7037 0.898148 4.49074 2.69444 2.69444C4.49074 0.898148 6.7037 0 9.33333 0C11.2963 0 13.1296 0.527778 14.8333 1.58333C16.537 2.63889 18.037 4.18518 19.3333 6.22222C20.6296 4.18518 22.1296 2.63889 23.8333 1.58333C25.537 0.527778 27.3704 0 29.3333 0C31.963 0 34.1759 0.898148 35.9722 2.69444C37.7685 4.49074 38.6667 6.7037 38.6667 9.33333C38.6667 10.7407 38.3981 12.1481 37.8611 13.5556C37.3241 14.963 36.3796 16.5463 35.0278 18.3056C33.6759 20.0648 31.8333 22.1111 29.5 24.4444C27.1667 26.7778 24.1852 29.5926 20.5556 32.8889L19.3333 34ZM19.3333 31.8889C22.8889 28.6667 25.8148 25.9074 28.1111 23.6111C30.4074 21.3148 32.2222 19.3241 33.5556 17.6389C34.8889 15.9537 35.8148 14.463 36.3333 13.1667C36.8518 11.8704 37.1111 10.5926 37.1111 9.33333C37.1111 7.11111 36.3704 5.25926 34.8889 3.77778C33.4074 2.2963 31.5556 1.55556 29.3333 1.55556C27.5556 1.55556 25.9167 2.06481 24.4167 3.08333C22.9167 4.10185 21.4815 5.7037 20.1111 7.88889H18.5556C17.1481 5.66667 15.7037 4.05556 14.2222 3.05556C12.7407 2.05556 11.1111 1.55556 9.33333 1.55556C7.14815 1.55556 5.30556 2.2963 3.80556 3.77778C2.30556 5.25926 1.55556 7.11111 1.55556 9.33333C1.55556 10.5926 1.81481 11.8704 2.33333 13.1667C2.85185 14.463 3.77778 15.9537 5.11111 17.6389C6.44444 19.3241 8.25926 21.3056 10.5556 23.5833C12.8519 25.8611 15.7778 28.6296 19.3333 31.8889Z" fill="#5F6368"/>
</svg>
