<svg width="27" height="34" viewBox="0 0 27 34" fill="none" xmlns="http://www.w3.org/2000/svg">
<path id="Vector" d="M2.98246 34C2.154 34 1.44981 33.71 0.869883 33.1301C0.289961 32.5502 0 31.846 0 31.0175V14.3158C0 13.4873 0.289961 12.7831 0.869883 12.2032C1.44981 11.6233 2.154 11.3333 2.98246 11.3333H5.96491V7.35673C5.96491 5.30214 6.67739 3.56238 8.10234 2.13743C9.52729 0.712476 11.2671 0 13.3216 0C15.3762 0 17.116 0.712476 18.5409 2.13743C19.9659 3.56238 20.6784 5.30214 20.6784 7.35673V11.3333H23.6608C24.4893 11.3333 25.1935 11.6233 25.7734 12.2032C26.3533 12.7831 26.6433 13.4873 26.6433 14.3158V31.0175C26.6433 31.846 26.3533 32.5502 25.7734 33.1301C25.1935 33.71 24.4893 34 23.6608 34H2.98246ZM2.98246 32.6082H23.6608C24.1248 32.6082 24.5058 32.4591 24.8041 32.1608C25.1023 31.8626 25.2515 31.4815 25.2515 31.0175V14.3158C25.2515 13.8519 25.1023 13.4708 24.8041 13.1725C24.5058 12.8743 24.1248 12.7251 23.6608 12.7251H2.98246C2.51852 12.7251 2.13743 12.8743 1.83918 13.1725C1.54094 13.4708 1.39181 13.8519 1.39181 14.3158V31.0175C1.39181 31.4815 1.54094 31.8626 1.83918 32.1608C2.13743 32.4591 2.51852 32.6082 2.98246 32.6082ZM13.3216 25.3509C14.0838 25.3509 14.7217 25.0941 15.2354 24.5804C15.749 24.0668 16.0058 23.4289 16.0058 22.6667C16.0058 21.9045 15.749 21.2666 15.2354 20.7529C14.7217 20.2393 14.0838 19.9825 13.3216 19.9825C12.5595 19.9825 11.9215 20.2393 11.4079 20.7529C10.8943 21.2666 10.6374 21.9045 10.6374 22.6667C10.6374 23.4289 10.8943 24.0668 11.4079 24.5804C11.9215 25.0941 12.5595 25.3509 13.3216 25.3509ZM7.35673 11.3333H19.2866V7.35673C19.2866 5.69981 18.7066 4.29142 17.5468 3.13158C16.3869 1.97173 14.9786 1.39181 13.3216 1.39181C11.6647 1.39181 10.2563 1.97173 9.09649 3.13158C7.93665 4.29142 7.35673 5.69981 7.35673 7.35673V11.3333Z" fill="#5F6368"/>
</svg>
