<svg width="34" height="34" viewBox="0 0 34 34" fill="none" xmlns="http://www.w3.org/2000/svg">
<path id="Vector" d="M2.42857 34C1.76071 34 1.18899 33.7622 0.713393 33.2866C0.237798 32.811 0 32.2393 0 31.5714C0 30.9036 0.237798 30.3318 0.713393 29.8563C1.18899 29.3807 1.76071 29.1429 2.42857 29.1429C3.09643 29.1429 3.66815 29.3807 4.14375 29.8563C4.61935 30.3318 4.85714 30.9036 4.85714 31.5714C4.85714 32.2393 4.61935 32.811 4.14375 33.2866C3.66815 33.7622 3.09643 34 2.42857 34ZM17 34C16.3321 34 15.7604 33.7622 15.2848 33.2866C14.8092 32.811 14.5714 32.2393 14.5714 31.5714C14.5714 30.9036 14.8092 30.3318 15.2848 29.8563C15.7604 29.3807 16.3321 29.1429 17 29.1429C17.6679 29.1429 18.2396 29.3807 18.7152 29.8563C19.1908 30.3318 19.4286 30.9036 19.4286 31.5714C19.4286 32.2393 19.1908 32.811 18.7152 33.2866C18.2396 33.7622 17.6679 34 17 34ZM31.5714 34C30.9036 34 30.3318 33.7622 29.8563 33.2866C29.3807 32.811 29.1429 32.2393 29.1429 31.5714C29.1429 30.9036 29.3807 30.3318 29.8563 29.8563C30.3318 29.3807 30.9036 29.1429 31.5714 29.1429C32.2393 29.1429 32.811 29.3807 33.2866 29.8563C33.7622 30.3318 34 30.9036 34 31.5714C34 32.2393 33.7622 32.811 33.2866 33.2866C32.811 33.7622 32.2393 34 31.5714 34ZM2.42857 19.4286C1.76071 19.4286 1.18899 19.1908 0.713393 18.7152C0.237798 18.2396 0 17.6679 0 17C0 16.3321 0.237798 15.7604 0.713393 15.2848C1.18899 14.8092 1.76071 14.5714 2.42857 14.5714C3.09643 14.5714 3.66815 14.8092 4.14375 15.2848C4.61935 15.7604 4.85714 16.3321 4.85714 17C4.85714 17.6679 4.61935 18.2396 4.14375 18.7152C3.66815 19.1908 3.09643 19.4286 2.42857 19.4286ZM17 19.4286C16.3321 19.4286 15.7604 19.1908 15.2848 18.7152C14.8092 18.2396 14.5714 17.6679 14.5714 17C14.5714 16.3321 14.8092 15.7604 15.2848 15.2848C15.7604 14.8092 16.3321 14.5714 17 14.5714C17.6679 14.5714 18.2396 14.8092 18.7152 15.2848C19.1908 15.7604 19.4286 16.3321 19.4286 17C19.4286 17.6679 19.1908 18.2396 18.7152 18.7152C18.2396 19.1908 17.6679 19.4286 17 19.4286ZM31.5714 19.4286C30.9036 19.4286 30.3318 19.1908 29.8563 18.7152C29.3807 18.2396 29.1429 17.6679 29.1429 17C29.1429 16.3321 29.3807 15.7604 29.8563 15.2848C30.3318 14.8092 30.9036 14.5714 31.5714 14.5714C32.2393 14.5714 32.811 14.8092 33.2866 15.2848C33.7622 15.7604 34 16.3321 34 17C34 17.6679 33.7622 18.2396 33.2866 18.7152C32.811 19.1908 32.2393 19.4286 31.5714 19.4286ZM2.42857 4.85714C1.76071 4.85714 1.18899 4.61935 0.713393 4.14375C0.237798 3.66815 0 3.09643 0 2.42857C0 1.76071 0.237798 1.18899 0.713393 0.713393C1.18899 0.237798 1.76071 0 2.42857 0C3.09643 0 3.66815 0.237798 4.14375 0.713393C4.61935 1.18899 4.85714 1.76071 4.85714 2.42857C4.85714 3.09643 4.61935 3.66815 4.14375 4.14375C3.66815 4.61935 3.09643 4.85714 2.42857 4.85714ZM17 4.85714C16.3321 4.85714 15.7604 4.61935 15.2848 4.14375C14.8092 3.66815 14.5714 3.09643 14.5714 2.42857C14.5714 1.76071 14.8092 1.18899 15.2848 0.713393C15.7604 0.237798 16.3321 0 17 0C17.6679 0 18.2396 0.237798 18.7152 0.713393C19.1908 1.18899 19.4286 1.76071 19.4286 2.42857C19.4286 3.09643 19.1908 3.66815 18.7152 4.14375C18.2396 4.61935 17.6679 4.85714 17 4.85714ZM31.5714 4.85714C30.9036 4.85714 30.3318 4.61935 29.8563 4.14375C29.3807 3.66815 29.1429 3.09643 29.1429 2.42857C29.1429 1.76071 29.3807 1.18899 29.8563 0.713393C30.3318 0.237798 30.9036 0 31.5714 0C32.2393 0 32.811 0.237798 33.2866 0.713393C33.7622 1.18899 34 1.76071 34 2.42857C34 3.09643 33.7622 3.66815 33.2866 4.14375C32.811 4.61935 32.2393 4.85714 31.5714 4.85714Z" fill="#5F6368"/>
</svg>
