<svg width="34" height="34" viewBox="0 0 34 34" fill="none" xmlns="http://www.w3.org/2000/svg">
<path id="Vector" d="M14.1667 24.2299L26.2816 12.1149L25.3046 11.1379L14.1667 22.2759L8.5977 16.7069L7.62069 17.6839L14.1667 24.2299ZM17.0083 34C14.6579 34 12.4478 33.554 10.3778 32.662C8.30785 31.77 6.50738 30.5593 4.97641 29.0299C3.44511 27.5006 2.23296 25.7024 1.33997 23.6354C0.446657 21.568 0 19.359 0 17.0083C0 14.6579 0.446006 12.4478 1.33802 10.3778C2.23003 8.30785 3.44071 6.50738 4.97006 4.97641C6.49941 3.44511 8.2976 2.23296 10.3646 1.33997C12.432 0.446657 14.641 0 16.9917 0C19.3421 0 21.5522 0.446006 23.6222 1.33802C25.6921 2.23003 27.4926 3.44071 29.0236 4.97006C30.5549 6.49941 31.767 8.2976 32.66 10.3646C33.5533 12.432 34 14.641 34 16.9917C34 19.3421 33.554 21.5522 32.662 23.6222C31.77 25.6921 30.5593 27.4926 29.0299 29.0236C27.5006 30.5549 25.7024 31.767 23.6354 32.66C21.568 33.5533 19.359 34 17.0083 34ZM17 32.6322C21.364 32.6322 25.0603 31.1178 28.0891 28.0891C31.1178 25.0603 32.6322 21.364 32.6322 17C32.6322 12.636 31.1178 8.93966 28.0891 5.91092C25.0603 2.88218 21.364 1.36782 17 1.36782C12.636 1.36782 8.93966 2.88218 5.91092 5.91092C2.88218 8.93966 1.36782 12.636 1.36782 17C1.36782 21.364 2.88218 25.0603 5.91092 28.0891C8.93966 31.1178 12.636 32.6322 17 32.6322Z" fill="#5F6368"/>
</svg>
