<svg width="38" height="34" viewBox="0 0 38 34" fill="none" xmlns="http://www.w3.org/2000/svg">
<path d="M14.5559 11.7316C12.9428 11.7316 11.562 11.1574 10.4135 10.0088C9.26455 8.85992 8.6901 7.47891 8.6901 5.86581C8.6901 4.25272 9.26455 2.87171 10.4135 1.72281C11.562 0.574269 12.9428 0 14.5559 0C16.169 0 17.55 0.574269 18.6989 1.72281C19.8475 2.87171 20.4217 4.25272 20.4217 5.86581C20.4217 7.47891 19.8475 8.85992 18.6989 10.0088C17.55 11.1574 16.169 11.7316 14.5559 11.7316ZM14.5559 10.2109C15.7508 10.2109 16.7737 9.78541 17.6246 8.93451C18.4755 8.0836 18.901 7.0607 18.901 5.86581C18.901 4.67093 18.4755 3.64803 17.6246 2.79712C16.7737 1.94622 15.7508 1.52077 14.5559 1.52077C13.361 1.52077 12.3381 1.94622 11.4872 2.79712C10.6363 3.64803 10.2109 4.67093 10.2109 5.86581C10.2109 7.0607 10.6363 8.0836 11.4872 8.93451C12.3381 9.78541 13.361 10.2109 14.5559 10.2109ZM36.1725 34L30.7412 28.5687C30.0532 29.0756 29.3472 29.4377 28.623 29.655C27.8988 29.8722 27.1966 29.9808 26.5162 29.9808C24.6257 29.9808 23.0288 29.3247 21.7252 28.0125C20.4217 26.7007 19.77 25.1075 19.77 23.233C19.77 21.3588 20.4261 19.77 21.7383 18.4665C23.0501 17.1629 24.6433 16.5112 26.5178 16.5112C28.392 16.5112 29.9808 17.166 31.2843 18.4757C32.5879 19.785 33.2396 21.3751 33.2396 23.246C33.2396 23.934 33.131 24.64 32.9137 25.3642C32.6965 26.0884 32.3344 26.7945 31.8275 27.4824L37.2588 32.9137L36.1725 34ZM26.5048 28.4601C27.9893 28.4601 29.2295 27.9622 30.2252 26.9665C31.221 25.9707 31.7188 24.7306 31.7188 23.246C31.7188 21.7614 31.221 20.5213 30.2252 19.5256C29.2295 18.5298 27.9893 18.0319 26.5048 18.0319C25.0202 18.0319 23.7801 18.5298 22.7843 19.5256C21.7886 20.5213 21.2907 21.7614 21.2907 23.246C21.2907 24.7306 21.7886 25.9707 22.7843 26.9665C23.7801 27.9622 25.0202 28.4601 26.5048 28.4601ZM0 26.9393V24.115C0 23.2822 0.244409 22.5309 0.733227 21.861C1.22204 21.1912 1.88285 20.639 2.71565 20.2045C4.20021 19.4803 6.21885 18.7742 8.77157 18.0863C11.3243 17.3983 14.0671 17.1991 17 17.4888C16.8552 17.7785 16.7197 18.0352 16.5937 18.259C16.4681 18.4831 16.3682 18.7152 16.2939 18.9553C13.5783 18.738 11.0437 18.9643 8.6901 19.6342C6.33653 20.304 4.59851 20.9286 3.47604 21.508C2.86049 21.7977 2.38072 22.1719 2.03674 22.6306C1.69276 23.089 1.52077 23.5838 1.52077 24.115V25.4185H15.6422C15.6784 25.6358 15.7327 25.8802 15.8051 26.1518C15.8775 26.4233 15.9499 26.6858 16.0224 26.9393H0Z" fill="#8225AF"/>
</svg>
