<svg width="38" height="24" viewBox="0 0 38 24" fill="none" xmlns="http://www.w3.org/2000/svg">
<path id="Vector" d="M18.5923 18.5806C20.4232 18.5806 21.9758 17.9397 23.25 16.6577C24.5242 15.3761 25.1613 13.8197 25.1613 11.9884C25.1613 10.1574 24.5203 8.60484 23.2384 7.33065C21.9568 6.05645 20.4003 5.41935 18.569 5.41935C16.7381 5.41935 15.1855 6.06032 13.9113 7.34226C12.6371 8.62387 12 10.1803 12 12.0116C12 13.8426 12.641 15.3952 13.9229 16.6694C15.2045 17.9435 16.761 18.5806 18.5923 18.5806ZM18.5806 17.2258C17.129 17.2258 15.8952 16.7177 14.879 15.7016C13.8629 14.6855 13.3548 13.4516 13.3548 12C13.3548 10.5484 13.8629 9.31452 14.879 8.29839C15.8952 7.28226 17.129 6.77419 18.5806 6.77419C20.0323 6.77419 21.2661 7.28226 22.2823 8.29839C23.2984 9.31452 23.8065 10.5484 23.8065 12C23.8065 13.4516 23.2984 14.6855 22.2823 15.7016C21.2661 16.7177 20.0323 17.2258 18.5806 17.2258ZM18.5874 24C14.5506 24 10.871 22.9113 7.54839 20.7339C4.22581 18.5565 1.70968 15.6452 0 12C1.70968 8.35484 4.22355 5.44355 7.54161 3.26613C10.8594 1.08871 14.5368 0 18.5739 0C22.6106 0 26.2903 1.08871 29.6129 3.26613C32.9355 5.44355 35.4516 8.35484 37.1613 12C35.4516 15.6452 32.9377 18.5565 29.6197 20.7339C26.3019 22.9113 22.6245 24 18.5874 24ZM18.5806 22.6452C22.2258 22.6452 25.5726 21.6855 28.621 19.7661C31.6694 17.8468 34 15.2581 35.6129 12C34 8.74193 31.6694 6.15323 28.621 4.23387C25.5726 2.31452 22.2258 1.35484 18.5806 1.35484C14.9355 1.35484 11.5887 2.31452 8.54032 4.23387C5.49194 6.15323 3.16129 8.74193 1.54839 12C3.16129 15.2581 5.49194 17.8468 8.54032 19.7661C11.5887 21.6855 14.9355 22.6452 18.5806 22.6452Z" fill="#5F6368"/>
</svg>
