<svg width="15" height="14" viewBox="0 0 15 14" fill="none" xmlns="http://www.w3.org/2000/svg">
<path d="M0.909091 14V12.2045L12.9318 0.181818C13.0076 0.106061 13.0833 0.0568182 13.1591 0.0340909C13.2348 0.0113636 13.3106 0 13.3864 0C13.4621 0 13.5417 0.0113636 13.625 0.0340909C13.7083 0.0568182 13.7803 0.106061 13.8409 0.181818L14.7273 1.06818C14.803 1.12879 14.8523 1.20076 14.875 1.28409C14.8977 1.36742 14.9091 1.44697 14.9091 1.52273C14.9091 1.59848 14.8977 1.67424 14.875 1.75C14.8523 1.82576 14.803 1.90152 14.7273 1.97727L2.70455 14H0.909091ZM1.54545 13.3636H2.43182L12.2273 3.56818L11.7955 3.11364L11.3409 2.68182L1.54545 12.4773V13.3636ZM11.7955 3.11364L11.3409 2.68182L12.2273 3.56818L11.7955 3.11364ZM9.13636 14C10.1061 14 11.0076 13.7727 11.8409 13.3182C12.6742 12.8636 13.0909 12.2273 13.0909 11.4091C13.0909 10.8939 12.9053 10.4318 12.5341 10.0227C12.1629 9.61364 11.6136 9.2803 10.8864 9.02273L10.3864 9.52273C11.0379 9.73485 11.5455 10.0038 11.9091 10.3295C12.2727 10.6553 12.4545 11.0152 12.4545 11.4091C12.4545 11.9697 12.1288 12.4356 11.4773 12.8068C10.8258 13.178 10.0455 13.3636 9.13636 13.3636C9.04545 13.3636 8.9697 13.3939 8.90909 13.4545C8.84848 13.5152 8.81818 13.5909 8.81818 13.6818C8.81818 13.7727 8.84848 13.8485 8.90909 13.9091C8.9697 13.9697 9.04545 14 9.13636 14ZM1.47727 8.43182L1.93182 7.95455C1.49242 7.75758 1.16667 7.55303 0.954545 7.34091C0.742424 7.12879 0.636364 6.90909 0.636364 6.68182C0.636364 6.37879 0.814394 6.08333 1.17045 5.79545C1.52652 5.50758 2.18182 5.15909 3.13636 4.75C4.28788 4.26515 5.06818 3.82955 5.47727 3.44318C5.88636 3.05682 6.09091 2.62121 6.09091 2.13636C6.09091 1.5303 5.80682 1.02273 5.23864 0.613636C4.67045 0.204545 3.93939 0 3.04545 0C2.51515 0 2 0.0984848 1.5 0.295455C1 0.492424 0.643939 0.734848 0.431818 1.02273C0.371212 1.09848 0.344697 1.17803 0.352273 1.26136C0.359848 1.3447 0.401515 1.41667 0.477273 1.47727C0.55303 1.52273 0.628788 1.54167 0.704545 1.53409C0.780303 1.52652 0.848485 1.49242 0.909091 1.43182C1.16667 1.17424 1.47727 0.977273 1.84091 0.840909C2.20455 0.704545 2.60606 0.636364 3.04545 0.636364C3.78788 0.636364 4.375 0.784091 4.80682 1.07955C5.23864 1.375 5.45455 1.72727 5.45455 2.13636C5.45455 2.48485 5.27651 2.79924 4.92045 3.07955C4.56439 3.35985 3.88636 3.7197 2.88636 4.15909C1.7803 4.64394 1.02273 5.06818 0.613636 5.43182C0.204545 5.79545 0 6.21212 0 6.68182C0 7.01515 0.125 7.32955 0.375 7.625C0.625 7.92045 0.992424 8.18939 1.47727 8.43182Z" fill="#8225AF"/>
</svg>
