<svg width="14" height="14" viewBox="0 0 14 14" fill="none" xmlns="http://www.w3.org/2000/svg">
<path id="Vector" d="M1.2069 14C0.858238 14 0.569923 13.886 0.341954 13.658C0.113985 13.4301 0 13.1418 0 12.7931V5.22989C0 4.88123 0.113985 4.59291 0.341954 4.36494C0.569923 4.13697 0.858238 4.02299 1.2069 4.02299H5.63218V0.563218C5.63218 0.402299 5.68582 0.268199 5.7931 0.16092C5.90038 0.0536398 6.03448 0 6.1954 0H7.8046C7.96552 0 8.09962 0.0536398 8.2069 0.16092C8.31418 0.268199 8.36782 0.402299 8.36782 0.563218V4.02299H12.7931C13.1418 4.02299 13.4301 4.13697 13.658 4.36494C13.886 4.59291 14 4.88123 14 5.22989V12.7931C14 13.1418 13.886 13.4301 13.658 13.658C13.4301 13.886 13.1418 14 12.7931 14H1.2069ZM1.2069 13.4368H12.7931C12.9808 13.4368 13.1351 13.3764 13.2557 13.2557C13.3764 13.1351 13.4368 12.9808 13.4368 12.7931V5.22989C13.4368 5.04215 13.3764 4.88793 13.2557 4.76724C13.1351 4.64655 12.9808 4.58621 12.7931 4.58621H8.36782V5.3908C8.36782 5.53831 8.31082 5.66906 8.19684 5.78305C8.08286 5.89703 7.95211 5.95402 7.8046 5.95402H6.1954C6.04789 5.95402 5.91715 5.89703 5.80316 5.78305C5.68918 5.66906 5.63218 5.53831 5.63218 5.3908V4.58621H1.2069C1.01916 4.58621 0.864943 4.64655 0.744253 4.76724C0.623563 4.88793 0.563218 5.04215 0.563218 5.22989V12.7931C0.563218 12.9808 0.623563 13.1351 0.744253 13.2557C0.864943 13.3764 1.01916 13.4368 1.2069 13.4368ZM2.49425 11.2241H6.67816V11.1839C6.67816 11.0096 6.63123 10.852 6.53736 10.7112C6.44349 10.5704 6.31609 10.4598 6.15517 10.3793C5.90038 10.272 5.64224 10.1916 5.38075 10.1379C5.11925 10.0843 4.85441 10.0575 4.58621 10.0575C4.31801 10.0575 4.05316 10.0843 3.79167 10.1379C3.53017 10.1916 3.27203 10.272 3.01724 10.3793C2.85632 10.4598 2.72893 10.5704 2.63506 10.7112C2.54119 10.852 2.49425 11.0096 2.49425 11.1839V11.2241ZM8.6092 9.97701H11.8276V9.41379H8.6092V9.97701ZM4.58621 9.41379C4.82759 9.41379 5.03544 9.32663 5.20977 9.1523C5.3841 8.97797 5.47126 8.77011 5.47126 8.52874C5.47126 8.28736 5.3841 8.0795 5.20977 7.90517C5.03544 7.73084 4.82759 7.64368 4.58621 7.64368C4.34483 7.64368 4.13697 7.73084 3.96264 7.90517C3.78831 8.0795 3.70115 8.28736 3.70115 8.52874C3.70115 8.77011 3.78831 8.97797 3.96264 9.1523C4.13697 9.32663 4.34483 9.41379 4.58621 9.41379ZM8.6092 8.2069H11.8276V7.64368H8.6092V8.2069ZM6.1954 5.3908H7.8046V0.563218H6.1954V5.3908Z" fill="black"/>
</svg>
