<svg width="18" height="18" viewBox="0 0 18 18" fill="none" xmlns="http://www.w3.org/2000/svg">
<path id="Vector" d="M8.28463 6.23078H16.5154C16.0782 5.05513 15.3811 4.01634 14.424 3.11443C13.467 2.21251 12.3756 1.6077 11.15 1.3L8.28463 6.23078ZM6.21537 8.23077L10.3692 1.1C10.1859 1.06667 9.95769 1.04167 9.68463 1.025C9.41154 1.00833 9.18333 1 9 1C7.9 1 6.875 1.20833 5.925 1.625C4.975 2.04167 4.13333 2.6 3.4 3.3L6.21537 8.23077ZM1.25 11H6.93077L2.85385 3.9077C2.26923 4.62948 1.8141 5.4157 1.48845 6.26635C1.16282 7.11698 1 8.0282 1 9C1 9.35 1.02083 9.6875 1.0625 10.0125C1.10417 10.3375 1.16667 10.6667 1.25 11ZM6.88845 16.7L9.7423 11.7692H1.48462C1.92179 12.9449 2.62532 13.9837 3.5952 14.8856C4.56507 15.7875 5.66282 16.3923 6.88845 16.7ZM9 17C10.1 17 11.125 16.7917 12.075 16.375C13.025 15.9583 13.8667 15.4 14.6 14.7L11.7846 9.76923L7.66923 16.8616C7.85256 16.9077 8.07019 16.9423 8.32213 16.9654C8.57404 16.9885 8.8 17 9 17ZM15.1462 14.0923C15.6795 13.409 16.1218 12.6228 16.4731 11.7337C16.8244 10.8446 17 9.93333 17 9C17 8.65 16.9792 8.3125 16.9375 7.9875C16.8958 7.6625 16.8333 7.33333 16.75 7H11.0692L15.1462 14.0923ZM9 18C7.76153 18 6.59487 17.7631 5.5 17.2894C4.40513 16.8157 3.45161 16.1728 2.63943 15.3606C1.82724 14.5484 1.18429 13.5949 0.710575 12.5C0.236858 11.4051 0 10.2385 0 9C0 7.75768 0.236858 6.59006 0.710575 5.49713C1.18429 4.40418 1.82724 3.45161 2.63943 2.63943C3.45161 1.82724 4.40513 1.18429 5.5 0.710574C6.59487 0.236858 7.76153 0 9 0C10.2423 0 11.4099 0.236858 12.5029 0.710574C13.5958 1.18429 14.5484 1.82724 15.3606 2.63943C16.1728 3.45161 16.8157 4.40418 17.2894 5.49713C17.7631 6.59006 18 7.75768 18 9C18 10.2385 17.7631 11.4051 17.2894 12.5C16.8157 13.5949 16.1728 14.5484 15.3606 15.3606C14.5484 16.1728 13.5958 16.8157 12.5029 17.2894C11.4099 17.7631 10.2423 18 9 18Z" fill="url(#paint0_linear_3001_400)"/>
<defs>
<linearGradient id="paint0_linear_3001_400" x1="2.65909" y1="2.25" x2="15.5455" y2="18" gradientUnits="userSpaceOnUse">
<stop stop-color="#0F52BA"/>
<stop offset="1" stop-color="#A44A90"/>
</linearGradient>
</defs>
</svg>
